<mxfile host="app.diagrams.net" modified="2024-04-11T20:09:54.285Z" agent="Mozilla/5.0 (Windows NT 10.0; Win64; x64) AppleWebKit/537.36 (KHTML, like Gecko) Chrome/123.0.0.0 Safari/537.36" etag="m9Fz34iDZlcfjHTC6p9X" version="24.2.3" type="device">
  <diagram name="Страница — 1" id="3qZibsuELJDGanjEC63O">
    <mxGraphModel dx="1125" dy="478" grid="1" gridSize="10" guides="1" tooltips="1" connect="1" arrows="1" fold="1" page="1" pageScale="1" pageWidth="827" pageHeight="1169" math="0" shadow="0">
      <root>
        <mxCell id="0" />
        <mxCell id="1" parent="0" />
        <mxCell id="JqdoCzfmNL2n94xj6bWR-2" value="" style="shape=image;verticalLabelPosition=bottom;labelBackgroundColor=default;verticalAlign=top;aspect=fixed;imageAspect=0;image=data:image/png,iVBORw0KGgoAAAANSUhEUgAAA8oAAADSCAIAAAAdYK4IAAAgAElEQVR4Aex9i1cT1/b/7w8SF9qvtWq9ohVfFQR8AIk8BUEQFAW1gFRFFLUXKgoXVC4WHxSLqGBVLCigN6BgSxADEovQEh8JkgoJFxKy5rf2OXNmzgwzQS1t9fa4uppkHufs/dmf/ZhzdsL/49g/hgBDgCHAEGAIMAQYAgwBhgBDYIoQ+H9TNA4bhiHAEGAIMAQYAgwBhgBDgCHAEOBYec1IwBBgCDAEGAIMAYYAQ4AhwBCYMgRYeT1lULKBGAIMAYYAQ4AhwBBgCDAEGAKsvGYcYAgwBBgCDAGGAEOAIcAQYAhMGQKsvJ4yKNlADAGGAEOAIcAQYAgwBBgCDAFWXjMOMAQYAgwBhgBDgCHAEGAIMASmDAFWXk8ZlGwghgBDgCHAEGAIMAQYAgwBhgArrxkHGAIMAYYAQ4AhwBBgCDAEGAJThgArr6cMSjYQQ4AhwBBgCDAEGAIMAYYAQ4CV14wDDAGGAEOAIcAQYAgwBBgCDIEpQ4CV11MGJRuIIcAQYAgwBBgCDAGGAEOAIcDKa8YBhgBDgCHAEGAIMAQYAgwBhsCUIcDK6ymDkg3EEGAIMAQYAgwBhgBDgCHAEGDlNeMAQ4AhwBBgCDAEGAIMAYYAQ2DKEPhjymunzdL3c1dHu17f3v7oya+Do64pE3gqB7Kb2vUmu2xExYOya9hHhgBDgCHAEOARcA72TIykDJ2pRGB0oLvTNDwOQ44N9Oj7XqO3UzkDG4shwBCYUgSmvrx22Z8/vnulaE9aQqQmMCh4XWD41mN1/SNTKvUUDdaW7TktWy8bTPGg7Br2kSHAEGAIMAR4BCxXYjwOtzE4/kAETDeTQvZdug8rVvVFCStzW2x/4GRsaIYAQ+D3IzDl5fWYuW5/SOCuwlqj2Wa32ay9tXu9PbyLDL9f1KkfQbGSVjw49XOzERkCDAGGwP8GAqy8/uPt6Oi98c/kGI02JCxuT3GL5Y+fkM3AEGAI/C4Epry8tuiOpRW3UB0XI7rUj5ad6sZSjo9YTU+7OvT6dn3Hk19fjwmyu4b64aD4X/fAqLtbnNYefc+gk9xPf0RzPO6AoTqM/dQc5GLhVbGSlhx0jb7qf/KovV2vf/ioxzxM5oMGElFU9B4LA5ukPa/IZRw39qrnISWnc/hlL+6Z6TD2DdjJ9p7iLHaTfAp9u8nOoRlExQVd6Dduxeu32gd/NRrawQSPn1oEIWDTcchExOvqfSloC1NK9OXFgJH6jY8e6vXtHV299EjOYbNoZaE1CI/TMyhanXMNmzr1SC+O45DYnaZhqpNoDE0N2LqG+h/qn1oJZBwHR9rb+23U1VIMyLBwqd3URXZWQcunPD26nhKbqqANIypezyFDvC0CnGt0sN+ImqZ441Ic5qV3SyGQhXefx09f2kSiEdXl9Bgb7GlvF7mpb5fCbzN1tuvFbf1x+0CfYFCBAPSY4yOEPPoOY59F4AjdUkVfj/kqeoQAZrvB2C8ww26SEoygokJIUFbZlZzD5h5ESOI7E3q/ODTXRJYBMjycyuxVnxQINkpgaTf0mIYwwyU4AJHktuCFlEDBcU7bS8JPCiJiYP4VEQlp2v6InxCmk8KoR7HIbmp/bLGRyPPwkbHfSnkgMjmKBlIxaINK/YeWZHxksP9JV4e+IV/jsaNC//ARzQm4UGSUpEsQZFUJRHCqXS+lqTxKUFYF1yaerqrp6IBR3/mS3kEdHXisfzKAcVDgpPNVjyTiAbACPwgAEohwQBCvUaauxEY04HCCThxoDghKWFUgrVTpx+QUkQZe33tuC8LK9ZUkykmjHAxDuwmfS+VhBKxG5aq3ynpIQBIRUB7v4eki6CB7I59d5AKMJaETNqV0ignxQbwfGVaI0orVglQWCTMlyU/RH92wXZnGQvJTgFRuWSQZYTLy1p5XJP44rT3tXSa7LIVjuNQjAAkrpIYR8qB8atFrJIBQWNHHJeaQDCWC1kHXRdQ4am+nvLymJ3KN2S1Pr/1zXXRptwMVOc9+qj6Xk5kYFRikWRO4Mbn4gdBA9vrmzpmLAgKDNPDfKm/P6RFVJje3uH75LmTWjh+s/GziR5f9+YPq81/tT4oI0gSuDdqQUtLyenzU0t3eISnb8H2SSpoITh0cf22sKfxyS7hWExgUGr4jr7zZjEM0XOPlx0sbpAn0XTQt9gqsJ8AqTtwlsrIwOtCUp53Fn+LGX/fdKc/ZGRsGPTPrE3blX+xAZYfKLMZSPL6PlzjXaSNnuRxHBiQST3h1K962wstnDqdsCtOGBIdtSvq68gGfdpzWnttnMrB4mtDYnTnld34dQsQHpeYtDUCmQQbixdhSdKn0q5SYSI12fWhMcu7Fn/iRRszN3+Zuj40A+cOS956oMWIzwzgzPNYX3CMFtsveV5ni7eHhiTt0QOzp3imXeom/Oa33CrTTZyB9HW35PjPDz/8qVJSuwe+TZnyW9wiYpfBPn02G5cYGuyp3B0eXGmwc57T21J3LSIkPBUUiYlNyy+/0g5YqaKtezyFDvC0Co89uHfsiKjgYW9Z/2TwFU7qh0Ii5oTTzi/hIBOympCPlP1oFOHgIpPQYHdDla2Z6xlxG3LwcN236DG3+fRLdXPa+yymfzZhGtvVHXv50sXD3tqiwwCBNaFzq1+X3niFLiGOOmB9UFaTFRgYHaQIDwxJ35ZU1P8fGorxGSlFanfHXfXXfZaUnhgdpArXRiftO3ejCCoCxFviKBMuqtyJTqRBSzZXGX7eXH4gJ0mJ4wSuJahRBYC6Pz3ZVPqVYlh/mMZ1HiVNjr9qkHMeNmNuvn9qTEKUJ0gRqIrZmnGtAKUPEDaafYItPPvfH4U4bGftF/l0zNuXIy+bynGSen0n7Tt3gnYfSgONGXj68fmJfQkRoYJAmOHR7xpk7JrvLWp+NFF+79BPP2cvWovfZt61cW7bnikMXLhfuS4gK0WjDwuMziur4zl2IlhcLdmDJtVEJe05df8Qva1AGHXvVdSlNE3PaQC2agDguu+mn6lNZ2xMig9eunOOxeFVw2IbkL/PL7/TwtHTZn/1Ukb8Ly6mJ2LLnxA1+eGCFSiB6kyghdPS5hnoqd3gTT1fV1HQzcd7iLJ0o/1h70YrZidfMHFhVgZPW2wcQGwM+ny2EvgMNJN3wtqAggiOUuVVjKVyjaHfaTQRT6w8TAlPRDNYVnl5MXk5OCVdzHPeec5sSVaqvJFG+QZRDvnghB4fxwNCEHQUVDwednPE0dihw/EU++D3kKnWyQXxXDjKUNV12093jsf77aklep/QQ344/2C9QJQh8EEdduAAEEBIonML8paZQig+4osATiExQqRZEOeAdxUzaedX8UY3tquC4g1RqWV4uIr/DWLppUVQergDGX+uLorzjcHFIKQAjuKsTuBHzg8qi1G0b10OBsXnn0QvNfKKSVF/YHcTSQgga1FQUULT/Sgo5tbRIDaP69o8pr0fMnfC41lp7MTchcNs5Iy6BHN1lO8IOVXWb7Tab3Xw/L8Aj+YffsGSjD77yXlNssEE/if3Vnf3zFv/rMZxRu+X1zRTPsMtQgKN/1utJM8JRPe4wlm8PP1JltMBQ5pbcAM+kH3775ULEp0uPt00oxADc5ErZkk9FstCQbW85Fpl4rLHXirtc9i1feeQ+qq/hxswmLC38X5fF10kUt1x2063c8IUL5/OnRn85H/3ZqrRyA6hv7W0oTPD/8obFxXFqszjw+LpMcS6HJIgT7Se8uhVvxoKgnNpeyDQOs744ftnnWU3wYaS7WCuIZzcbynf5LEi89AJyPigVfcEIpsH/8WJMXxT4VV0vtAA6zG0lcd6+fALrrdqu3VNqwCbQF0Uvjrr4HFadYZyFPv4+Efn3Uf4d6b+6e61/AJ0dpy0J8Fu3q7oPSp/x1+1FkT5+vgt5AHsvrp8dcupn/snXNfjD1o+W5RkmGJVHgyQkl/3ZnYIY36RSRMKR7hKNV0BamQF1LlkMZWkrP92GtFRGW/165I1viYCz41/ec6P/bbBiGI3fRbsvr+UU6q1K1B651otuf3H/8GrPmGvyiE+FbJfddDs3xNtrLlVeL/D3WxF1/B4Pf3VasJ/fMj5Pu4bu7l/nk4r5aTcbq/b7rvuizjJOUc7edMB7XkBWFer7spp0xYmLV6bXwiV0QFeNU6N9ZRuXbC5s6LPa7Da4fbP3+pJucCgwVqZOJJjN4ZaQaq5kro6buSyjwcQTVZelVoJ4+61Zm/I9zzL9yYgVa3wWkHSoxl61STnX0N2sz70Teb3MhrLU4A0FHSMUbqgSnWCLDRVG7FAD+lOaWYm1g4i5fVXJIRmlPD/bTsR6RVc+o7Zs4BqwlO/i+KJ6xASzoTw1MLqg47+cAwP45MIGz8jvngiuCtFg9qqkUr0ZfMXeW5u9yivmAjynjlvq0kXJrX31BfEL/I/irUe4CxKSy/4MaosE7D90qHG+qElevXLbWZ3J6ngGvdctDqDNwYCl2n8jq45balNFOa29jQWxi/xzWyHaoAyqHIjeJErwmXLsVde5lKXeC6jyWkVT+919i2am1JONsbHOwtVzEm6YOU6Nkw5sGmNFpBj65KGGQMSDIrqeeiyFaxTtDlqL6zL8iKQooQsFWCw488WSRaqPju8xtyn2UPq+Q5Qb7SuLEsI48DbJb/dNi4vjrQaOn6XDFoRcBeWaMtncWwoVuE7r44tpIWsPNpop8RXe/vZDkkgV8EFpeR1dwSdQOIX5KxIGnlQnxAfl8lqtWpBIRJgpdV51f1Rmuzo47iClLCvKJDLZ0X1+88LIgnuDI0OPT8cv2XyaLw7FayerEyDeBviml/EFhrEqyz8gFScqmRORGkCanqiZ3iBtqadFehy1939Med1zOR49O67xD9yc830PH9Wcw5Y+2EnEGyWtZ+Omb6/FCwJjDws/X5pPGkg6/+0756sHKJip3WIoXOiZ1UTSzmjT3plLT6Db0Q146x/q+9K4GVtrrba2s5nHmia6B7CQXoRGMsNqMXnQgT3fJ8Jo1ZkLFxeiJnJCX4Kq/rC8vHbZn17dFRRwqPQov9g83lmy4pOMevH7KA6z0dBrBS3VZsGjy+YCn9TmN2AMO5Q7BGS3cBLxFh5ppfKE8RufmZn3nJyzLc9rbkajKB5nro6fqf0WnmCUHAbEWJAjGem034y999ESHGzcPyZ79LrimGnb0GMUHqfpyqalUUV66/BAXdbqgJyWOmGZGYld15IbEJD2ff/wUFdJ4pK4K03iar2lJvEffscf4Q0Ea+32mUuwzYkVJK/gWskX2/WtlV/4+O5pwGWos+3o4jnptJaW6thZmjLhOU3ibxzn7vp3QMBakzJT+83P5Hd0qPBKiS6gPYFC+CLYttK361tv5MUu33NXtqAmlrYue291ijbg4LmjsVR5HXul6fLmJZEn9VbbQO2BAL+vW2rJCpm1ZqtHSF6DuInZcCwEG06gXEXqrNnpDRRH+srWem6sBmxpykn0EtThnI9O+s6QPM1WJs/EDiXGQQEIN4RUdaWu/E890uuHSFgQY7owKl/KZ9e25vitS73aPzzUXbJ5xabLzZcISrjtZCJ7VSfl4FF/zfk+cQ5rn8FgslHltbItBC/WVWaHhhZ18V4JrSndaN9T367XlUR5JN/k1yDIDK9/SPYIPN9LPnKctddgEFsHLJQucA2YJqpapDhnr032RJy3VMd4rvmWktzRkbNwFnZiuAuM1VqR6rdij1JtYfpW4xGD1jRwiOC/2uhozfnHwrwfnRxnvrrRI7CMktPx8KgXijY4gyoGIj7aTBIl4PvoY4P3j0ev2lxWkkmX18qacg5DwfLZ266ZETec3Sf95u+sgx0SdU4ieEX2imgL72jOQ5gkkcoNdQVXAhem7Q4TEe/rePwU9xeJBBYcZOzVvYIony1lxaqPju8ztwXoxJzyLlFuvPPfvpJA5LB0G/pQLkUziLihj4DtW2c9wVINhSFe0d+g7XdRfIV3MMvWavyMzEl9EE4l8aUOOiUrr5Xjg3J5PUm1gAVTdl43/ohvAznFZzw3NJ7Mf90wmeMcxnNxKyKOVZfuWLZJobgm9YZqBLBeT/LUHGsUV0WhMw0FSan89EMpAQSyG92lRruw4L8AhjCUelpU4MCEQ39Mec2vo9jNxsqdc2el3bWj9Zt7lSf2p26FzpDAII3/0rnTFp9CS9TcWGeRn1feTzi/uF5cjv4k5abV7S3dhd6fxBc38xBfP7Jibm6rA54Bmy+d3Ju2DTpDgjSBAcs/9uDL7gmKwwEAl16ERs+7sFqM6e+y9dScyNiG9rJhQHFbh7YKDCSpX+MuWVxDPZfSNEEn2xyCzX77IXnahivPJsqhPgu+VjYXDEi2F9eFxiQdKv+JbkhG98humSAeJQShkeXahJ6TzuIleG+dXEPdJuYS4aCg6dhAa1nOjgTUYwBWkHfOOLrPx3vHF5XlhPtkNlnRyiXGmxfb2rTPd13mt2eTl8SfM4oAchxnu7t/wWcH7sLTmr0+Ze7yIqMw+4Q3kJCg3yAwwMvnyC2+HcVyTayi+Ds6Ty0XnqZkZSLHubte0FeYWjiiikDvlZgViQU1rZi3UL/SMRQPxKOtQCF8nvQABGkTv66Z8Is8vAywab47eF1xm0MM9Pwph/Fc7LK4wvKcEP99OitwA1tZf3Smx6KVgWKHBtgObYjDjYhyPl6e4eKWEYjTlu05MxdqHZpyAg5whUgeAPPjpbhpQZzlNNhQqB6wiug+dUKqupKtNWeV9stzJCxc3KG2ep2t56y6LJ/VWWWlO71jv+2mUFKzneqknKHoM8/sVlFy4d0ktiBeHBgUpN2WX9WB3HhsoOXb3O2JaN8TYo7fAirh8SMbTizyONwiTCN/I1ocn6FNIz2iz/mIX0gjYwzVpfAPY3AXLD0Er1rol32btHOR6+BVYA5vZfLLIYLFgVHkIL7x9a1krI5wjTCgcIR/M1mUgF6bOJ9ddSaKPOqachzXV7F+bljpL2Mc5+z5RjMvDapr5OAqnESSCVIJclJvYDrqcVFwZzexVHAllAQpu8NEpH8gLDYp9ey9QSeFMO8gowNNx2P9d9WaqFOUQASK95TbtKQ8sO8W5X77YZtn5GWFXMrPQDNTEoKIBMSsb2Kp1SvmbzxjJPseZISJry8ubfDI0vHPyFIfhAdRwRHglKS8VovVwuO3vl0vhLLJqgUsl7LzuvFHfBuBhf+kHoGpqE6AEO6FN26YDNeP6nNXenhO8zncxn+/jgzCT4yrfLUIAFFrwUq+wRL5kSYwCLrgkFSksof1x8pk+sGbLKQGh8enkd+yoyOGctpST4tSoZU/TWV5bbd0P34p9rfBhOO932jnpvxg5cYttclrIvNwo4XdZhu4//XqOf/ES9QjHcfXLCDVNff6h2TceO3uFkd3VVqYdj0G18fLc9aOepijboffhuN4z9Rms1vu5/mhsltZdWlNIFwjIm5tSJoZmI33sm1223DH6XW8Y4jX4Nuk5fX5zsdndvjEoe1UwWbWupSZ2jNPycoax7nG7Db7mItTnwWPLZsLBiTbi1ZTU95az7AKeYeA7BaIxbiMA+qHnesXv0rg6i/TTk+6ZuWQeOd/Ec9wYw9yveYeg8V6wXMEjPBSzfoyyUjnwzy23LByzu5Tq+cklKAeGNitflWXSs2OHo4dhtORi2Yvy6yHDQWxtBLENjdkLv1kUcRp6PwQAITJHYbjK+ZuvTnosjekzNaWUwtjlGj4LQwL/QZWw+nYxeF8O4q1bvsszVmpljmL5xztFG4XZEBH3F0Pgr0tApzDVJ8bPsdzzrJ18ISp3nutSKHxUdvw6DjpAbC05AV6H/1J1nyN4Pq2s+tcyopETEBhLVNA0mEojfCat3QfWpIUUlHXSS+PnVdMw3xnhc0+PGh58eq/YH9CudZ/zl9bahQpzI3qdnt6FXW9WXkNYPoV/PQb3rSF//9meWFBX00VOSAYwg0hVV2J46yGyu2LZ8xc6LcOP9eJWU0YWJjLUr/v89leUZhlBCVV9qpP2lW40DP1P3hPBc0yPjoMdsLUVbcF8WKbzdJyLHBa+EUzxzm7i/3mbvk33ve02W2vbu2cWF6DpdKlEyJi8CpKUzuOchnN5NtEsOzblOGJOA+SpzdRKc718nLMjMTrUHiCI8DSg9VwOt4rogD3EwkgwpvOY3M89jThcSFE8AWEEFI4kPNLHT38iysbUbRBIUU5EInRxk2UOHjn2a2j4f7ZCgFEWVOQ11yTNNevqHPM2XM6ZG7GXbQJ44aTSFel0CeAABCRnE27sxvqCq6EvEy0O9KaNOCZW/PWou0FwTdRkDxw5/mt3A1+B6RuK0gDb95rbkskRcC+a5RDYbm0VwxErjH7MORS/p+IGzoAcymT7U0sZWrI8vHdUYk6ycgECq+urtIVHx99yJ+R+OD4gwPTpKeo8lo9PoiP32iJCvvXZNUCnl/Zed34I75NynY34Ezmv26YzHEu29PqXQErApav3lX1VOmXCQQxlCMARK1kSFSkmXDYan4xCPEXbiSVPb82QRVsZCEVrfku/hr2195gVUg9LSqQYMKhqSyvO84Grci68Wxo1Dk+Pj7uHB0e+OXByU1Ld900cxx0JoWc/xmdGbO9fHItc8knKbetnMs5bLqZ+bnv8Yf/hZvGx+2t//RaeLzDpX6LqAPul7WQxuvfbm7z1JT14DmGX/58df9yVHZzztf9T56SXyIRb5eAKxwWC6yus0un76oZGIEBnSOvfv4ukX4Ywi6Cb5PUryHJaXE+iVW49hNqGq63MnTuhqKHeLjxsaGndy5WN/U7OPVZ8NiiPOgzDLjx0nMM1tjr26kz5h+H+ob+J7tFWl7PSrzQTXQa/PnStk9WnIS2GhAv4UwXEW/4uS53zYJ09G0ege7UHCDGzG30SJVbPkXLydbbqbM1JzqGxkDEseHnDbm+8vKa4xxtJZm1eL9aSAm0OUy1+0twr7wIIJq9tyJ03pbrP99K/1hzASPssj/vau+2UFkcXSgOC9Xk4rAiPXy/svdixJz4c6KWz5py/RelwRfp+H8y6Nxc/y4IcC573/epq1fuq4X+YPXea2UKve68WV7T8dKOkHWODHy/yyPxOr8bSeQHqbQ7UmP9E6rwpr8Y6CkkHW3FWQR+snpta8le9Hny1Z9f8Xwf6Kq7dLNrmC+v0eOZ9e5er5iTIoX7b2cHeGffhydqwO3gj5iVzytjRYo+vxTtEVv5fNyFwV9f0PLMhqkx1H+v6krzr7DeIxqL6OGWkGquBF+H/KkoclnUaT20d6v3XvO+a6rLLNaj9SYBJXX2qk5qv3/Ie+n+m79ixjtHBh7WlN/sHsbltRtbCF48Pva6Pt3jH/mdHGe9nfaR9hRxHtuzhqMrJpbXyFKZNf3UhBfQhBg8QReK0n5H75qIRwLnvVJvWTkOJPc/dFuQ/NXPlxM/XXUS7QmJjgBJbqm2qF34Gjo/rrUhY5EmV/d8eMyFEtvhNs7lHBn8+dL2f/iVQEgBOddm3xLkhGgzzwf9iBSEFJVAREUb1SixJX2PJohvEqfIAzIra4pEtv1nr9eaYw8efqP1yrjDLwOBgytzEt1CCcNrTb3AdCRnS9xZPZaCDyrZHQEIboKCJonqYpkIDpKYmhm87hj/c9fiKUogCgru/eM2LSjS992jHFgtggpEPXcrrjT38yvH0n0VvupSIZt7S/Fbi/Acvir1e7xTqJxuXKPPL237KKr6FxwBx59XbvSMxlHPNdp3IcYjTOjOAvcUy2s38UF8/KZC2WTVAgZZ2Xnd+CO+TcZ2dXCQ+VQghUHcMNk11HMhZc3agw2G+gNr/FIuKHxzmxJDKQKgeJv8/c+DQqK6fZFPVLIviTVJ2sZIenKOGEu0s5OhP8J92kJLgeppUZkJEpZzU1lem2vTV62I2Hu+pkHXrGvS1V87cyAuNON6H9De2rBnqd+uM406XfO9O9dPbfOfM31Dlck11NNYlrx8mt+RKl2zDv1Xcch3WnRR04sxlVuk4sNOQzNpvLbe3rPcZ9c5mP3e3WunklfN5b/v+OJ66rqYc0bh6ZaMIbKQHJE80NhaCwJ9Y/OvwYB3rpfsi1kyj3oYUi2vZ8zxO4CWVWBQqqax6g5qfRKLrt1p1unu1VfsjwzIqDVznPosWCiZkDDgulwMV1N9ecb64AL6ZxDRPbJbpOX1vCVrdxfX/kena274vuSLiNVb+TrMqju0PmBLcc1dMMTtS4dj14QW8xWupCULSwVifLJ8TVpJLVzfeLU4Pdx/O36kMF1PWhmcdr4OjXMlJ8F38Uxx7Vxs7cLj0KWVXGx0BQUg+my+mTgvMi5ueXA53zPqeHQq6FPfU/I+Ebpic7SdWOMVc7pryMVZm7I1axNP3bwLZKuvzI5freXreCyPXAb1698BAeixS1vnk8l3sspVwxJAcFGmkK2lMMh3a+7VevCUuzdPbQkIOiX/aieMOX3+qiyhWVYstpSnE/O0o7ts26rw9FPfg5PerSlODFiPCSDe6DCWbg3cTtCr+DJy1dZy3JUIuG05i124KidIoKiuKnetR1BOVQd8SdbadDAoIOrAxTqID40VX0b5pdWhZyzaWBgFCBmqhORUXGls8Ef6q+iiasKYKqU81Supyl61SaGZsHzLqojd5cQu2wM1xWTjxY0tiBfrdPVnM0LW5rfCeqrpRsJK7a7ztwHJ29VHEvy9PproMshSoXvKb4OL3a0p3r4mFE3IE4isxPNag2m8VsVnX65vatbpblcciAnQ5OMqzWEs3+oflVHR2IRC3Knd0at3Y4vQz7qco+2U38JNJY/xDwkJYDq6y7avS8y9ducn8sN8P/6n9uz+2NBsHX5ehQv8IvZW1N/T6ZrvXCtJ37BuN36qA5KrBCIquQozyaPE/3lTXZsiedxoioZyGPJ9lsRtDpt/sFn4AoEqJ9EdysLwcslihegm6tSFaxTtDhMF5VSBQcWoLhIYdJa/NQAAACAASURBVPxoEfU9MPEUBRJdXouHxQjwF3NbFAkvNL57lEORxD+h8PodHEn2Rfun1YnfrZKB44Zs7i3Fl9ccZ6pL8fbLrIUVOsV0Y396I0fr6b2/EgdAna46Z53n2pzqhy+c9qc3vo5ethb1wCEApOW1m/ggzA5BS1gEUa1JaHRpZlLOq+6P+GY529UjsBtI3TJ5bPDxmR3L1p5Cixq21qPrlsWXdJBfsiIayMXAx0U3R/E28otiVJhBHlwbjFdJ5DeKtwAgJD3drSlK9E26hhIPfXxC2sKBVzUtKjKB6MC/TmV5DXuzVblfxEVqtCGa8M1f5JytNwrrgo7e60c2hYdotCFRyblVDVXZ4eXd8K2gWYsD4CD139rFH81KqLFwnOItMvmB+l+QCsnReyMbzx69459VjVWHIstQ1WW6nhaWzNcB9P3dpSGaUnldRh8UfslfE745u6rpWk4Ivpy+BgY0ntUcagRVrY3Z2kiSXeCMteEIfwp6G0z1xXsQCJGbMkrq0c93wGHy9wJks2BRZXPBgASusLg9ebXo6YXWiuNkt4jiAf+izzXW5WXAnyfQRO/JqzUKiYbjLG2ludujiY0MxHag1BFqhRcmgzyxoayxNj8DX5+RX2sU+oIsLbyaIVEZJfUNZxNFcOTjwE/iaVVQRUpJAIQj9ttpn0ybHVohdIa8aMpc713Ify9WAEIcFg7ZWvPCI/mnBbO+NGdHFGAYsz2nStAS3ymHDjaVla9/BwQcxrPbw48Ij14TVEMiuKOQw9RQkon+tIQmesc/S5tMwoIN0RvGDD/Clzdw0Fp/KCQbbUIoT2c8q9GeJeBZDdeJQZNzS9v4piPJjVZDFUEv49gNAT3AjdBywpvVXmQJ1mFqKj20OQzFh4xjdd08+aTGIrqoElLNlcyN2eE7xJ+4kKgmDKo4l4gSx6mwV21SNLDVUIX/5AfYhXBqEluIcMVsz7lBoODMLSUZfBDbU9zQWLplosuAWQ1VSq4qtTjWGVJIZnVbKQ6/kZsOnW0TKxHOZqzLyyAWKW4UGCV1BPi9gjB+pV9AEv0Oie4sKB4IP8znp43clJF/TeAEXGjvrs3H6sAfQ2kgw7sJRErRRh4lJMFcNKh7TUGcnvOrPWYsyJb8xUMVTiI1lYXhEZBCJA31KrEUKKFod5iI9yAxqosEBh23l1E/siCe4oVBLyIU1NH3iNuiVL8vyiFfbCymeIt+wIoMLwPHDdngDuWsJwl6HNdbtUOTgZ48ldJNW7bnnBXBlGXBlH4L4WsM3aUhURlV1DcjwRy4ipgkPuCkiXWiNHJfLeDLpcyknVfFH/FtCmxXBgetXqsUEm6ZbG44EpZ8VkBDlhCxFKiImhj0JNy2Gm6QGmbHP0v1fDyTyy/eQqenKCq10cdl5tOINY9yWuSUmMCrQF6mtrwmo77h6+iPXy2UfAUe7lM8+IYDssvcIwCBZuJimPt7lM9SSzXKF/xRR8dtLcdXfboVGo74fzZ94ZcKz07k9B/1+pch8Ecp9MeNq8+eItb9cSL+D48MRSe91fZHqAqBRfjy1htMMHWBiJ5sUk3Hnl9O/D+f4/ItH3oM9v5/DoGpJZtSumnLpn6Gj+CneJCc/MBfpxbSDxQMJSbIVPkry+vxR8Ur5ueTbwPwgikelAnNPr4jAlPnFX9Fcel8/Uv3o6bynX4BX9H9MGZjN1lnf0dY3um2vwKBdxL0r7+Jldd/pQ0mLTqnQDgILO93eW23PO7qqM3duDDuirDvNQWKsyHefwSmLuuBrkrpRrGSVjz4/qP1RhJOLaRvNOX7d5ESE2RS/pXltU2XqzmGOg4poRQPUufZ29+BgHz35N2Hku2dvftAb3Hnq7tfbQ0JDNqQo/AT5m8xzBRd+lcgMEWi/9nDGEvFjbY/e242n3Sn+I/BAwKL0GL0BlNMXSCiJ3Onaeel+NiQ1SFpdIcFfS97/z+LwB9DNhqu7lK+AW/Sg/QFH/D7Px7SDxgcSvS/srymxGBvGQKTImA3GQyGXsuEfuNJb2QXMAQYAn9vBKx9bQYj/LEf9o8hwBBgCPwpCLDy+k+BmU3CEGAIMAQYAgwBhgBDgCHw90CAldd/DzszLRkCDAGGAEOAIcAQYAgwBP4UBFh5/afAzCZhCDAEGAIMAYYAQ4AhwBD4eyDAyuu/h52ZlgwBhgBDgCHAEGAIMAQYAn8KAqy8/lNgZpMwBBgCDAGGAEOAIcAQYAj8PRBg5fXfw85MS4YAQ4AhwBBgCDAEGAIMgT8FAVZe/ykws0kYAgwBhgBDgCHAEGAIMAT+Hgiw8vrvYWemJUOAIcAQYAgwBBgCDAGGwJ+CwPtUXrvGx8fHRuxjrj9F8z9iknH7QJ/R0K5v1+s7up6ah51/xCQf1pjOVz3tegBE/l/PIEPn3U3pGurX9wyMwQDjw6bOzpcj7z4Wu5MhwBB4FwRc4+POUfvo+Lvcy+5hCDAE/goEnIM9E6oRVJ/0vJrqkuSvL69do1bT0+5H7e361mad7va1uif2vwLzKZhzxPzgYsGOhChNkCYwMDRy65GyFlwATcHYH+wQlkuxnrOXrQ0M0lD/rV36iWfMZcsHq9RfL7ijrWhlYlF9e7tef79yX8jGy31/vUxMAobA3wEBp83S93NXR7te36rTNd68qjf/HbRmOjIE/jcQsFyJ8Zi3NIAuSDSBAZ/P9oi7NNUlyV9dXjutXTWns9KSNoRoAoNDNNrITcdarR+mFcceFmtWbils6LPa7DZrX/0/w2f7neqa6uehDw0bKK8jv3tis9mp/55c2MDK699pSUtL8Z5N4SEabcz2nBu97C/F/0442e0MgTdBwGV/1nwhL23X5gicsEKikm90v8mN7BqGAEPgfUAAyuvoC0a6ILHbjBWR73t5PWHV3YQWouEw3QowNtjT3o4PjHSXhK9ILKw1mm12m7xEQK0Wjx7q9e3tj578Ojiq1DRiN+m7LcO2l08fd+jb9e0GY78V7ZgjM7pGX/U/gXVx/cNHPWKrht1ENSp0PH760oZrYLmcdpNejzXgOJWhaLaY26rKWkzikf4r4R4JVQPiAfGdkwis7zD2Ddjx5iKantqeGHvV85DHDQPbMyiqxrmGTZ16fTuWT00jaB0Q+lUAHBrECW0bRFfnsPlpVwdsl3TQsNtN+nZ9p2mYMsPYYI9ez5tS1E7yDsrrCQvVsoNjQ6ZetBr08JGx/xWxs93U/thiG34pnhJM60ZfbmzIhMkg7c95e+OCvgQSjuPoj67RwX4jz8yel1QPkEQwfTuhPX0vhY7c4uJlMA41N7oH7IW9Rq4L5VDU6BxcBtahWWMzdba/Catdo4O/4jandkOPaYgawkks0k5xV5QcCeCymx6TWeCU0BrU0dVLwyVIi3CbyC0BQI4Du2ImtFODgBd0PbNjSkpgGR0wtve8ArllsokwwuwqbBEE4zgeRl4FyokwvBOPo3sFaSWUhlMKvi+BiB/QZEcT0/uVVECg5UODKhmFvkgCgstu6uo0DeOwA1FONJBeL8yoTHJVrRH6yuFLpjUfhSbEH+wvowNGvbTXaXTgsf7JwBjCo99qJ67X0dVr4UMnhkrebabkRDQmIJa8dQ05nYRIQBIxYY1b6r5YE5BWpjdZJyYsN8GWmhciMslKVLiTEEMSqDmVqKKSleQGBeOa7GgQeUihpEJvZYhJcKB5KxWPGkXCGT5sqMgD0hNTtj+ioijMCmbm40/H46e8mVXcBKZXdzcinARDN0lfhgMIQ3sHDyYeVTW3TrgLAy/BE0cmMcqL1Q4V33D0EVxSEs1kxgKnJgnLOWzuQemJuLai4VXwh4gpVZkv3uT484dVQigxI58o3Xmr4F8qVIGh3CeyNyInoQKU1xMWqqmD7yI5GVv2OqWr15JVd2gAyNbDdJbLcdNir5B199EBXb5mJi65nD8eXbzmTBdfBFOpi+Nc9mc/VeTvSogIDQzSaCK27Dlx49HAqEx6jtNne/hml18p3Ju0QRuiCYmKTz9Z1/caJY7x18aawi+3hGs1gUGh4TvyypvNuEG1Ldtzmpcf36sQFrMl60InegyQyslx+sPTPA63wZSqQ02QhxxwjQ39dGr9wiP3beSI8Dr+uu/OhZyU+FDUQ5Kwo6DiIUoMlIE5jhsdaMrTzuJxg1MzPNYX3COlksveV5ni7eHBI6ymkcv+XOxX0UYl7Dl1XQRR0rbhv2zeNGytEXPzt7nbYyMAn7DkvSdqjBhOgNrT47NdlU/5aoZzWu/lh3lMn1g9C6qC8Scrr8df990uz8qIiwAzRSbuL6p5bEWPO23ZnisOXbhcuC8hKkSjDQuPzygiplXTl3Nae+rOZWBsgyJiU3LL7/QPoeLr7Y0L+mJIkD7ix/HXT24U7SXM3PV1+T2h81kimO8iQnvxXhoaTmpxRGbKoNTc6C4RSakutENJh78cN236DG3+fVRlcuBTfZdTPpsxOatHzO3XT+3BbU6aiK0Z5xpM2OjA3fKcnbFhmsCg4PUJu/IvdqCKSqKga+jpxeTlZBY4tcCX34kLjdqWVY69TSIq4DbdO+VSL8WtAu30GQRAp7Xn9pkMPK8mNHZnTvmdX8GuDsPpmOC932NKUrCMDjQcDfE7UA/b9hLZJIRUZwstHAz7yef+uLtJGxn7Rf5dMxBU7TiECxVKwxkF3zeexoP7LprmscgHvz9tlNFDEhBo+dCgSkahL6JAGBvsqtwdHF1qwKEJohyZNMhvAUk8aiRX1VpKZqm0Iy+by3OSUcQLikjad+oGxBTr7QOIFbAtS/ZqDzRYTTcT5y3O0okdgmPtRStmJ14zI8C3FF0q/SolJlKjXR8ak5x78SfsepTpRa2BVHInEs+id8oxUDqaxL/MV2Jmp9W94J/5JV+wcRtshXnHXxsqj+3aBru1QaHh8RnHa/qQqooQ4bvGW/eL/XUQqPlkqpKVjKU4tfl4iWnutJF7AzTk11A4uBFPUI0befnw+ol9ODAGh27POHMHwoaKPGoEQ7TfVnj5zOGUTWHakOCwTUlfVz4AM6u4iRt3E0VDqr1J0ke3iFgBqwk5wTHFqsaduSV3ibdQeKJpxAKDG3n508XC3duiwgKDNKFxqV+X3+MXDaRuRUczUUgI7UM9lTu8ccIaf91efiAmSMtXOBBVcBlDwQFB6l2ymBDJA4M0WfXWSRLuG3kr5V8qVAHc3CWyNyKnqLwcUnSGOgjTva3k4uiSd1NeXkdX8Kvu0ACAgxvFKpfddDs3xNtrLq7JXlRGeaaU1J79ald0iCZQExH9RQGKvBw3bqlN9V0cX1Tfa7XZ7NbexoLYRf65rWLQ5bWAtPGxT3JpmwXWvm19tQcCFkRX/Arpz95yLDLxWGOv1W6zWXtr9y1feeQ+qq+Bl5lNfK/Cs+vJHy3M74ThKDnR6CL7VYeSYIk/4Cew1rrS5ODIk13yFXmOG+0ri/IKSCszwIK9ta++IMlv902Li6OzqctuupUbvnDhfKq8Xujj7xORfx+VniP9V3ev9Q/g3YlDsUNBo3FLXfrn3oliv0pB/AL/oy08iJBaIiv4tg3jd9F8Kuqt2q7dU2qwAD5mfVH04qiLz9HjCkDt7bdmbcr3fVAEjb/Wn4xYscZnwe8rr0d/OR+zbFMhbyaTrmTTkrDibrATmGn2qqRSvRlAtPfWZq/yirmATKtmwZHuEo2Arc1iKEtb+em2Sy9IMSQ+49HPTmrGpSoSsKz40daSH7YlnzCzbs8K30OYWEhmjyxCLV0WSYTivRLCUC6NjouXSUInf49ieS1zKOnwl+OmLfD3WxF1/B7Pmuq0YD+/ZSTaqinuGrqbJdLGbChLDd5Q0AEmGf3lfPRnq9LKDWbkUw2FCf5f3gDuipJzY4NdZ75YskiI6XAqU8fvxD27tnPmgkKDREz4APouCfBbt6ua51Z7UaSPn+9CHsCR7mKtMK/dbCjf5bMgEdvVYTwdF5J2FepywX9HXt7ODV+TpcNdZpRsMJUIoxu20ALCsBsqjLi7aUB/SjMrsXaQDxdKxwElFUqr+b4DD67LmuaRpcPvHW4DAi2fqlHoiwgILvuzOwUxvkmlRhKZ9IenTT/IT2pryiTltRrJ1dBwF764vqrkkIxSFPFslrYTsV7Rlc/GOV5r2JYV9modHGe/u2/RzJR6sks21lm4ek7CDTOOz9MXBX5V1wsPBg5zW0mcty8uxAXT0zorORF9nifDxBhIjSbzL9eDg57rci9fKdqfEIm+YJP0VRm/auM+2Arz2luOhSQWt0Lwt1l/vpT08UdH0QqOMkTott9ubhP76yBQ83FMzX8dOLXpMsU058AuNsnDBnJD6hoKBzfiEdVcQ3f3iynbbChPDYwu6PgvxynLo0YwRKQZC4JyanshUTnM+uL4ZZ9nNdlhIBRGZG6i7m5EMnhVSxmUjuLlInMgRAvktNtsQlXj1tzoLreFEJpLKDAAunU+qTiu2s3Gqv2+676os0DafaMcMfaq61zKUu8FuLw2V8fNXJbRYOIrHIBLobxWxd9tFhMiOQzu4NyEUAB2cm+V+ZcyVWAod4nsDcgp2nYipOgchfM7SU5PIL6f8vI6qZZvnYY0JiuvXfbe6hRtwMFzR/mGAeMZH8+PV2zj6z+zoWzXqnnRFf1OjjNf3egRWNYrCup4eNRrZuY9tK4pHkV5PaqKasmw1W33CDmPDsAG9xPUNAL7O9WZCxfjxA7Ok1zJ75s0FMUvzsAyyz1NYD/ax1IcipKEvOWfwIL8AncVXecXV8g5WAjv/Lfv7PQGcVHbYek29FnpbOqyP726KyjgUOlRsuqPbd90ZdPSqCK9dXigLmt1QE5LnbC8qqKRpTrGc8231JfeHB05C2ftvY9BBAMlCta6HEdWemD3/zHZWtIVx0zb9sNvoADK0LWtOX7rUq/2Dw91l2xeselys9LiNKUuVc1QR8USx/no1IqZOyqoDbiK5FleyE6gVFQ1ZVp7bbKnpgwOqOjrbDu6eE56o4gtZ6mOnYVveXvjdubN9UxrsOEtdJhTWMyGTiH83SbYRKvavxgLjAX7RwF6VgPADpNECNAlX8Q7blS3AOXSCBxSA0kUfPjI2DcwAo9fAtSCLhMcisKYPC42Xd68JPKk3mobqD0Q4Pd1S62wJwO7s0qsfn0zxXPNeYo21j6DwWQD7pas+CSjXsTXYTYaeoG7guRjr+4VRPlsKSsWYjqte3tDYeJn6bcmfrkCDJpd15IbEJD2ff/wUFdJ4pK4K01k18vZluc1N4O2q7k6fqb2W8wNh/Hf4X47KlrbG46FTNPmN4BF/FYcbiViCrJhcAQY3bGFxhHQRsNCxNBVZoeGFqGnZrXj6pRW9308HxVw4IBAj4kBgZJP3SjURchAwMDWyi98fPc0kK1EzFLxgUefTcpr1A6nQHI1rd1LC/1m3fgnldr1upIoj+SbKKZI1CTyOgwFy2dvu2ZGnufsPuk3f2cdUAamXpDTSp4LOFjP9JuBwhktVUdXL25LQKRC+6dk5AmvyjEQRkMl7AT/stene87wCqQWR+IXLD0ApR/nPtjKZub32XWlu1cHnMOt2+oQgZAJV+GJjgeBLBOo+C8/l0x9OmaqNVvKbhFwgDYaNxbEE77+Idkj8DyVsq29BgPVlSAbXI1giEgLj0jM/I0PnfqlbqLubjwO+IVWXy9L+sS7FZgj+CA/GNgCVTVuzQ13uSuE+MEERaw1Wz1C8hrElgwIZTjtygUQo5mA59jg/ePRqzaXlWTiDNWV/6lHev0QSVzCLBI8cGeRgoO7z2LUwxeQYpKE68Zblf2LF1FQDX/GPHSTyCYnJ627HFJ0jjoI072r5PQ8HMdNaXlt+lYjPicJRCSrSrB/sTt4XXGbA06hftzO/AWeq0p7RJnM1VEeYRdNHKc/OlMcCp1/fStZCP3iDSLbyDFyxGXrqTmRsS0xHG+2Uts6YDxhnyhwbVj62Sa0xQiwEk+DVHpxB//Ypz4UmZR+xU9glu7af0XPXy6sa5Irfvthm2fk5WfkI/XKG9g11HMpTRN0ss0hRjf+lKP7fLx3fFFZTrhPZpNVrGlQuamgkT7nI/4Jh0wzVJciLDabzmvFszAXcp2xgdaynB0JaJcKdpcmdDhYdVk+q7PKSnd6x37bLZqSzCB/FWxNnxAPWq7FTZu9nN955y2lCTxt5GtoqTcLXqdiQcu1CX3enaeWY73e3rhWXabv2l0XdHzpX57Ml9eu4Z6awi+TUTcL7G6LfTWc895eAV55eU221daHxWbk1fXDYjCYlY6qlWQK2qCh4XHJOdW99onltYJD0SATv3MYz8Uuiysszwnx36ezii1Pqqw2FH3mmd0qGQp/+O2H5Gkbrihxl3e60YGm47H+u2pN4iyIpUR3zbqAyLTSZqGXRpiDt6y1aZ/vusxvzyYviT9nFPkPJCElBX9LZ/ESEh9cdv0x/0UrA5EhUBfHqkW+hxr5liZc+pNnm3a9vjFPi23kji2CYHxBIzSHBAVpt+VXdVjHcbWneFyV0uq+j+eTJUI3AYGST90o1EWCFQIDvHyO3CI9ZpAh72dS2ArltSrJwY+UtCbltVL4Ghto+TZ3e+LG9byDiy0oICKvJi1tX8X6uWGlv4xxnLPnG828NFRdEz5TFwoRkpYqNDo5tfT+KydyImkAoW7Fb5VjID+sgn9Za7d4eu66RZ7cOM7RfmTBrKwWJ8e5D7aymfk+B3CHM+3AVHcQwR5vpo5/qhBU5lT9l59LiJb4Mx0zg8Pj047hGCQRDK4RFp706HkV+5078cgIhhOLPA63kE8TX6XyqBJMgQ8yhkjdxE0GoWWg1Q+UJX3CZwXmyKZGQRhxyq253RRCigUGVDsQwfh2DuwmBxrQM6XbHJGt56C3Is5nV51JqAdsrTmrtF+ea+YXEIUyhoaDU8ffbRaT+pO7ECoSlcwrHFH3L/5SKVWI46slsjchJ5EBXuU2Reeog4Kcwk3CkUklF27Bb6ayvB5/cGDax0cf8jPIyutvO7vOpaxIRJuSQnVlvbZlRtRl6tt/Y80ZHosLuziu66SXx5c6qtfa9eLKxulJ1+QLX5DXM5qpb17BCPOPdnKctSFpZmA2/h0Pm9023HF6HV9NgvGEVgprX9Wu+V5Hf3LK8yWqLHEKVx+KQnN8dNg2IllcH/phu+eSU13UNRzHWeu2z9KU9pJHS45zjdmH0W99IwOf73x8ZodPHIaJLKKIhHAYTkcumr0sU9ZUqqJRV+FCz/QmGsSXl2NmJF5HII4/2O/xSW4HsRZfXju7T62ek1CCdv9hJ+5VXSrJvuS5hbPU7/t8tlfUaQMsuZMnJamW4ifFC8SD1rqUmX7/+vE38Wu8v1lemm3QLg1KSU3blOE5B0yLTilYEGF79hf6u5cPchbjW8AxSBjlHxsmNa65KS8uMhgHu+AAL768ttZvm7XmEO5msdtsww9PB5GF/+ffRYjrTLLVa7KtZum+mDpnYd6PQDhZY58fv7snUdDaW506BxZvRNCQkys6lIg7Xxei7OgwlEZ4zVu6rxG1IpPVa1VWA21S/4P6qPB446PDw/DjvmAs7ZmnEu7aEHeBGwfuPL+Vu8HvgHQWFPSJ7nZr79Wdcxd/DcpL/gnx1NyQufSTRRGYW4T/aN7zUrvmes09hppMRp9f3+Hje7LFaod9c9StYTi7wSvmbDffxw2yCfU97p5Ez/bu2EILB2gLTSA2S8uxwGnhF/leBaXj6pRW9308n7RuwF6vHBAo+dSNQl0kWMFqOB27OJzvMYMLnldsmJb4Pb80CpfhL/2oklwNDTfSOruL/eZu+TfuN7PZba9u7aQXSqjEJkhsrkma61fUOebsOR0yN+MuLmdh6vVl/aJ7u/rPh3lsuWHFoZvYwtySvwZtYAqkEoaVv1GOgTidK/uX4ej8eXl6ygP6z62ftR3Kf7fBVpiYRHvc52Dtrdo5P+aKmXMHkavr9OfSQI1LXlX/5SeTqQ8fScw0GytV3VBYpsELB2gud+IJqkHKTpeGDRsKG4ryqBIMESnsnMTMZVo69UvdRN3dBMngDa2+TZb03TBHTk4IwqjEdGdud4WQYg4C6HZeMQ3z7Rw2+/Cg5cWr/4Lc7nPEwTvPbh0N98+W1QNWQ+X2xTNmLvRbhxfIyEoEhYg6/py7LCYtr92F0Em8NVbZv7CEMurCUOqJ7I3ISWmOI5X8N/goQ/8eyel5pnT12jXadyHGI0zYzReIiKKVdkdqrH9CFd5xFguF7iKfpftv/jo0Ng5/Usb2THc0cBH6OqCtJXvR2uxb/fiMc2Tw50vb5vmcmvATSJA7/XJ1JmoE//npKNydXTp9V83AiHN8fNw58urn7xLJ5j4Y7+CPMCM6ZTwd8lHKD7IYDUQXmpa6VIei0Bw21l2uav51YHgUZhwfs1sMJ8Pnrr9AbbKjq3svRsyJOPkQCzY+NtRzt+JKcz/fHBKSnBbnk1iFd9gEVtGEcLSVZNbiXXGh3kWxQ0Ej+/1D3v6HbvPwAgiXEz9ddRKWhl2jfRVR0yOEthqYC1zHejt1tuZEBw/n8POGXN8J5TXHmeoyi/VoOUU0JTc68PSJSdiSIshQF5BDkqK8tzJ0btjxlufDmAJD/c1V1U2/wthgJr+jd4lph5815fp7paLOAjULArbx57oItuiWRWn1ZGeZhNG3Mi7f8OdoJc0hXWeWzUi5SYg1+HP5FvwNKpdzqOnQwvnitqa0OeQAzzjniPEbzf/trAHCyRr7mvjdPaw7b1DhehFJMJaKQ4kY45oDZ2LO0VacRVhDymtVVgNtRK90jgw8rCm/2T3McRwYa0ORyN2ndy5WNwF3gYqJqZnB64614FJITIFwiug+7hwxlmhnJ9+UPyVT8dRUu7+kDXOLRFU0b8IZ0a7PdblrFqTD6s7466bcdYszBBNjfW2tR3x8kq8/R0+WIIBQ3+PuSfxTNm7YIodx46XnOFyMj72uT/f4B3xZevqbiQAAIABJREFUA6ygdBxJq0xpVd/H84mgoc9AD5WAQMunahT6IjFWwLPW4rAiPayZupxDukOL53z1gF8aFctrNZKra60urfV22kfaUySm2J41HF0xWXnN2f6z12vNsQcPv9F6ZdwhXxa5HDdt5rYL3aLrVW75dHkRhDPaFmOv61OnLzzehQIILgdc9mddDx9bqIUGwEYtBrpLWNZb6Z8K0RtF1K0LIi5CvHYTbClDOH7VXaq802Plk8RQW9G6ubmPOHWIXKPPLyf+38aqX3j+Pa+MRaxzcar+y09H+RQcoWOmOzckJbjNhp5XkUOpi0epBin788waIWUPPKy5gMMGvkgqjyrBUFSclUib+dK2T1acFFO/zE3UMwglnER9CEN00iderMAcqupCo0EQRpxSN7f7QkgxByHokq/+/IqvVga66i7d7IKIO0mO2JK+RxNEvk0l+rjT+lNR5LKo03r4jWChjKHh4NTwnySLSctrzk0IBZd0461u85eUKsgf1ROZG3KOD5mePJ3wgxhym2LDij8n8nskl2A8hc0h9qc3vo5ethZt62N5CREROtPnr8pCy1pwTiwUuN6qLasidpfX63TNutuXD8YGbinDX7pxdJdt94vYW1F/T6drvnOtJH3Dut18gUCrAJRa4JOYfamxSdesq7uYFbU2+Bhqu7S1FgT6xuZfa9A16+5cL9kXs2QetXq95SzMiE7lJfomXIeCFWDlrYimENxYfShKFBDYf8OXRZd+gBl19dX/2rFmzZcKIlubDgb5JxRev6Nr1jU1VuyL9k+rg2VFsPqMOfzPHSCYBHkUCYFqGkx3oKOSRg5j+Vb/qIwKBM6d66d2R6/eXQeq2nuvH41ZvK5UiFmgOxrLdD1pZXDa+ToA5/aVnATfxTN5TETvpbQWTenqPhMZuPc2WQcj14gXkCNSAnBW3UHtqqjsCpjxXn3F3nD/DAwaKOW1Kj77cn0T/L2higMxAZp8XL2p6ctZm7I1axNP3byLTFCZHb9aO6FWw3K8nXFJ6zl0ctpbCoJXbCq42tCs0925dnr/hqX/AOicL348k+r3OXydmv8nLa8TSxHfdP+p+VeST+INRDjRpdEtIsKUgsL1IpJgLDWHIpMr8BmfegPFHcZy0Svv3jy1PVBTDFsVHDKWT2LRtTvYWPsjAzJqya9zfLRo82n6C3P8kgkoRXRvvnPteMLnSdfw4yElKugri9wSf7TqDq0P2FJccxfR8tLh2DWhxW0OzmXrPrPJK+Kbblk5znGmm8kL/I82QQ0pooomFGF0wxZKNBQW1uVW4XChqz+bEbI2HyIMWEHpOEZJkdKcmu/j+QTT4I9uAgItn6pR6ItoEBxtJ9Z4xZzuGhp78eO5Xf6++9AuNLpaWL1WIbkbrd1Ia7qRsFK76/xtFOSrjyT4e31E/TCWcnBzGPJ9lsRtDpt/sJm0YgDgnyxfk1ZSCzRovFqcHu6/HS9FULa4V1+2d31gYYuNKq8dj04EL1hRDIW4+E89BrrzL1vrUSF6o4gadLAJe7xqsBWn5DjOdG1rQEhG6Q+8B+0NW5UOHqQGkb33ek7ItCVZFTz9mqtygoB1D184J8tKMp+iQkrz3ZqiRN/J3RBwwMFfTTyJao7usm2rQveU3wYnvVtTvH1NKB820GVSeVQJhvLgvCVrdxfX/kena274vuSLiNVb+YU5NJDMTdQzCC0drb7uznVJ0ue9WIk5cnJC9MCBSs3ckxRCigUGh6ALTz/1fSOGLjFgPcQ3viqgnIWKZqDR/3lvomIuvwA0NvhjUZR3XCmOilSfHo2HCv6TZTF5kHafcN14q9v8JaXKhMIM6yHQQJ2cg7f3rttwplvc70J3ym0qPzhJnHErOQ3xVK5ed5eGRGVU8RaFSaz1h0JKUUCzNhzRhB/hv8dPTmWTmG41VP0zOUajDdFE7/hnlUEoTjjO3l2bnxEXqdGGhMXtKW4wkSUWWgVIG5lV+tJDm8O0IZrwzdml4t/QcvTe4EcO35xd1XQth5enuzQEpsP/hW/OKG6CCgHaSY5oDjWKAhjParRncQGqNhQtChStDSWZWBf4Yx9ndYoic5zD1FicwQucUdyIvgjPcdbGbG1kNg2TIA+cOiLWbfysxlLtJBrBj6kY6/KouXiJjGc10XuqhGII646txVnI3ysJicooqW84m8hjIk5HaQ1WxqZ0GM5GhWehXSrqPKKBYGtyQrwLjjhMutIj6C+kRG7KyK818otV4GOZ1W3CqUNn27CdOE7NgjCaWV+asyMKjBuzPUfk0+82LqW+o+8aP0XkpkNVuuu5mlIjmC98c56O+tKY8SyhE9xLKAfE4BWRm1WcglJQuF4Ezb1DEZAn8BmfeDNWq3qlw1TP/zmbyE0ZJfXo2/0cB5Jv5x+M0TTiLLTuyJFpiIisoC9PP3JI7o+WttLc7dEAY1RyLm9Xh6F0S2Qe+SkciYkd+uJwfEpEFQ0twggfVdgiCoHFkJjvRjcq+GA6peNwrwql0Rkl38fziaChz24CAi0fGlTJKPRFUhBsrXnhkcVtlvpDkZuO8dEPXW0sFeKMIsnV0XAXvjjO3FKCI7kmek9xQ2PpFiqayb2AiN1zfrXHjAXZ/HYI/7i4oayxNj8D04CKFZQtUAxBf2aJItVLXWbowkJhMQHrqhoD3fuXLHrTMV452BKF+FeroSonTQh310jGU4ZIf3ja3JXrRJqhMOK/mN8rV0lweCJKfThAhRTwoNI2KlIRCWW30A6lLB65kbxaDVUTnJSckw3OqRAMr9eea6zLy8BVwZ68WiN5wkJjydzErbuRySXqa2RJn4dXiTlyckL0EAKVorknKYRUCgyOsxquE2LT1pELIDoy4JlcTlVc5JS5MTt8h/jTQBPhwqAo4j9ZFhN0F4BVC6FQpLrxVvWCkOcqNRPNQ3FeSi81cpobssKiz+KVIfFGOaToDHXw90guzoLeTWXvtWzoP+UjvSrzp0zIJvmzEJA9wv5Z07J5GAIMgb8egTFoivA5TuVGcTH1raWztRXupZ/+3nqAv+oGcQeMkkDxIHX+w36ruLj4Yav0d5T+d3jrXwzXFErOyuu/2JZsejUEWHmthgw7zhD4X0bAbnnc1VGbu3Fh3BXqd95U9ojfCAhLt1HclXyjO96TixQracWD74nAv18MVl7/fgzfgxGmsEj9k7WZQsk/9PKabIj8yRZg0/3xCMg3E//4GdkMDAGGwF+PQOel+NiQ1SFpsvVm5T3iv17cP1ICscGMmkXxIHX+w35LbdN/2Ir8vaX/cL11CiX/0MvrvzeFmfYMAYYAQ+B/DAFrX5vBCH/HiP1jCDAEGAIfLAKsvP5gTccEZwgwBBgCDAGGAEOAIcAQeP8QYOX1+2cTJhFDgCHAEGAIMAQYAgwBhsAHiwArrz9Y0zHBGQIMAYYAQ4AhwBBgCDAE3j8EWHn9/tmEScQQYAgwBBgCDAGGAEOAIfDBIsDK6w/WdExwhgBDgCHAEGAIMAQYAgyB9w8BVl6/fzZhEjEEGAIMAYYAQ4AhwBBgCHywCLDy+oM1HROcIcAQYAgwBBgCDAGGAEPg/UOAldfvn02YRAwBhgBDgCHAEGAIMAQYAh8sAqy8/mBNxwRnCDAEGAJSBFzj485R++i49KjSp9GB7k6TDV04NtDT3vf6De5RGocdYwgwBBgCDIGJCLDyeiIm7AhDgCHAEPiAEHAOW/qedHXo9e0tuuaGm9/rzZMLb7q5TbPv8j19u769sTBx1Vct9snvYVcwBBgCDAGGwJshwMrrN8OJXcUQYAgwBN5HBFz2Z/fKj+3ekRAZGLReow3RRO+4ZnwDQR1913J2RGlDNOGbM4pb36Agf4Mx2SUMAYYAQ4AhgBCYwvLabtJ3W4ZtL58+7oAVEYOx3zomojxuH+gzPnqo17d3dPW+HHbiM87BHn3PIP/BbtLrTWQJxW7StwsfuLEhkzjs4KgL3y29hnO+6mnHg0mG5ThubLCnffJTorAcJx9BIpuyLvLb+632wX5BZYud2ntVVoezm9pFAFx2U1enaRjfNTZk6u3qaJehh6Rs1/cMUji7hk2dego6JKuhXd+u73j89KWNxv0V/4HjOAmSIIae+g9jOjpg1He+HKG0HB14rH8ygOdW0AjMIRlHD6KiOV2jBJn2Rz2mISK+0/ayB4lKZhcJQKYFu5Cz5I1wlWiX9kdPfhVogvWT3NWDdZcATqbgOE4EDWhMD+TWEPwUDx8Z+18RjnJO4hH6DmEoJS1AJDV5OO7dEZOMKSHVW8PFIRcjsCPjCtgrEAAAVZldwjc8LD8ScjyKmWOveh5KaIO8gJdB9HZ3XiCRgeMAA8pBKLOLb+EWmjBootGBJ/pOs9QDuvXGgTGp+9DeRE8tCSkSNUVD0LFRlIZ/p8K9cUttauCqtPI2k9Vmc8juUmMyLRhHYfKGzJRh6Bod/NWIPLfdIPizRF+ZWOSjmhj4/BsMC/To4WPQhICDKUVDPT7yqv/Jo3Ywboexz8KnITFxoHnFj3IVSB5RQ0kSOuh4+9YhSMFB+NgJ6YxkQ31H11MzyaUEU6wDipPSzGAzdbaLGdY1SqB4+KhHMogi7HjU4ZckDRn7BviMJhPVZTc9JrPAKcGPpNyWBDRJPaBvVxfbzVwS9dkHhsD7gMAUltf6bA/f7PIrhXuTNmhDNCFR8ekn60hD38jLny4W7t4WFRYYpAmNS/26/N4zO9TIlstx02KvWDAS+sPTPA638ajosz08s/Xow/jrvrrvstITw4M0gdroxH2nbnRZUZVGXQMXWi7FesZchsEkw3KjA7p8zczJT/EzoxfpCBxHyaami/z2LUWXSr9KiYnUaNeHxiTnXvyJr01V1eHasj2n8TqPveq6lKaJOW2wc5zT2nP7TMbO2DANoBe7M6f8zq9D6AnDciXGY4bH+oJ7pMB22fsqU7w9BOhGzA8qi1K3bVwfpAkM27zz6IVmHvcrMR5xl3jcOY6jkRxv3e85e9nawCCYzn/ZPN5AppuJ8xZn6cjjD8eNtRetmJ14zcxxyhpZbx+AEQIDPp/tMW9pAHp/oMHKcSMvH14/sS8hIjQwSBMcuj3jzB0TkGH8dfuFrFhtEJo3MMhvgaAFhSzY5ZPP/flr8OCYMy77s58q8nfhYTURW/acuPFoYJS/Fcy3yEccmdedApyaY/y14WL+zq0ING1UfHrBjT6stXtDEB2DQsNi0/LumhFFR142l+ckx4fC1BFJ+07dMEKLq7U+G8G7duknAtTZt600ASh5fh9ilI40qd4FLuxiEm5guioTAFRQmZ3mG++5PPGB0iIzRwea8rSzeAaOPrt17Iuo4GA5MyfzAkoGjnMN9VTu8FaiFo043OLlhycK9F2EBTDVJM1deEDiAYW+H8dfN0vcR+JN9NSSkEKp+SbxxF0QMFdHfbK79oX5KWoOoYsYl/35g4sFOxKiNBA5oxL2nLpOXIIWjMbkjZgpw3DE3H791B48iyZia8a5BuTPEn1pcKn3amLAJZMP67Kb7h6P9d9XiwMZxH8FcopQj7x8UH08PT5MowkMCg5JTM39FqchMXEg0cSPUhXEPKKGEqcWb4EUbxOC5IwSRYJsUHcuI4UPKbEpueV3+nE2oHBFGXD6DG3+/Vf82oXL3nc55bMZJMOOvzbWFH65JVyrCQwKDd+RV95MnhtVYEdR/k55Dk5DwesTduVf7ECPwRJfdg09vZi8nMwCpxb4osgfpAmN2pZV3okj6fjrJzeK9pJYvevr8ns4OQLg7sR2MxetPXvPEHgvEJja8trzY5/k0jYLLKHY+moPBCyIrvjVCSnt7v51PqnlBrPdZrObjVX7fdd9UWcZl9XBVAlLF3yjfWUbl2wubOiz2uw2q0lXvNl7fUk3LCJJnE2lvHbZTbdzQ7y95k4sr+WnaINIAytVXqvrIr99+qLAr+p6bRzHOcxtJXHevrg2VVdHqEVc9meQNhJKjYDkSHex9rNVaQQ9Q/kunwWJl15A9QaZY6GPv09E/n30wDHSf3X3Wv8AUj24hu5mBfimlxksNpvdZjZWZfkHpGLcJUWMFMnfbm7zjPzuCdxisxu/iybPP/a7+xbNTKkf5rcOxjoLV89JuGHmODWNHGgEm7Ei0iP6ghFGg9U1ANB3cXxRfa8VyGAoTw2MLuj4LygTN8v7y0YTvsvWlKlUA4FdNlQY+WvsaHBUXsManjistbexIHaRf24r/zSgPzxt+kGdOLLb8trWmqdNKm5BoFl7Lm2ZOzMXPedNYghBx1dtp0JmbqkbBEL0VSWHZJQazDC1pe1ErFd05bNxjnNgNJ5c2CBC7ZAUoxSbfh9ipIKRkuqd4MIuFllBcQMVxWoEoMpr6exKnjuxvHbZTbdywxcunI8Z6Oz4l/fc6H8bgDYSZk7iBYJbwbrfq65zKUu9FZ/cKMThFo+sJjyRTZfFu4DtP3u9Pk6ptxEP6Cr0m59w3SJ1H0lcIuDD2JKQItR8bxZP3AQB14+HpgUevXTlxN7EqMCg4PUbth/+Fhcr45a69M+9E0nk7KsviF/gfxS3WFOCSTGZnJnS68Gfs8RZzIay1OANBR0jMn1pcKn3qmK8wbBO6+OLaSFrDzaSthaoQSeSEwVJ5O/25qwl/1h1oKob0pDVpIOYjNIQVbwiQykt00iThTJK6vEWl9dvHoKUHASvHI10l2i8AtLK+JBiKEtb+ek2nA0oXBHZFvj7rYg6fo/PDNVpwX5+y0jha285Fpl4rLHXClD01u5bvvLIfUipqtbkRn85Hy2kIWtvQ2GC/5c3LC4J+ccGu858sWTRIjILJOhMHY519mfXds5cUGhAUtpa8sO25OMUYO2t27PC9xCaHnzEndhUxpfPRWvP3jME3gsEpri8jqoyiWrZ6rZ7hJw3cZy1ZqtHSF6DuE/UcCxk2rYffpOFYOXy2vnopO+M5Ephj0mvr0yeuRi5KeVsMKsYJYVM5rL3VqdoAw6eOzphYXviKVFymWD82gMq49R1kd++IKeV2qo1nvabsfe+k3OjDqoDQNPWilS/FXv4tOFsy/Oam9EIZTr/z1wdP1P7LQCNk3TTlU1Lo4r01uGBuqzVATktdWTh33o9yVNzrFGEriFf45F8E3B3U14DjAlXUXEoxcFhKFg+e9s1M+pXcXaf9Ju/s87KudUIJJbN9fqHZI/A871EGY6z9hoMsI3bdXy+Z2rDEOmhkRmXv16wLPl8JQbveJivbvQILKOGdTw86jUz8x5aQ4alIxLZUT6gymtCLZV+kubStHUBZ6CVdTJDCAxvrsiOWF/UhY3vHDY/7SYdL7qSKIw/kV5I5PgAVBsT5fl9iJExJaTi3gku7GKJtVYsLdgCiuK3prQkJcNYQDl5ee2yP726KyjgUOlRfoPLWpMyU/vNz6TrRmTCJF4gltdjg/ePR6/aXFai+OTG2wS9tGV7/qOgkz+iP0yeMB2GfJ+Pt1znPeDxKb+5qQiMzry5nmkN+Fc40DMFeTKkykeV8vrN4okb7tnrM6bN/GwN//gNdU+s14qsJjvHWapjPNd82yfq5ejIWTgLghD1IKeCiRhL8e2CIhOuf30zxXPNeWoWa5/BYLLh0KHNb8DtAbJOCSLT7xm2oTDEK/qbbjHGgswTyInjD/LNi+kzPsmopwJp77eB02KumjnrtaQZ2tM9pEfNfGmjfC1GJVnIUFKPtziDvEUIkkU/YSJn29HFc9LpbGCpjp2lKaPSLsIWe0fT5c1LIk/qrbaB2gMBfl+31Ir7w9AB8gS1cYKBqjMX4pSqas3xzpIVEvQcZqOh1+qgfHns1b2CKJ8tZcVZdHmdfJHP+w2FiZ+l3+JjB7Sm/IzbHfX69qr9i71QRp9MbAGWiXMRSrFXhsB7g8AUl9d8juTVI86gPzrTY9HKQH6TiN9yRX0CYo6kS1i4ndzLWa7Fen68lO9V4O8N0pyGggeuEbxXr2/M00rDImxi7g5eV9zmEMITSXJKp2ijgGBCbtC36y/u4EOGui7y24WmF3SCaOpGHVQHwJZ08KqFftm3+YYPyzWqfwbP0Vm8BNeUfOXq6D4f7x1fVJYT7pPZZBWh0+d85LlgJb+ZTqCDJgRU8grlYDs8sZCCgONeVEZ5Zur4rEXExhP3VayfG1b6yxjHOXu+0cxLg+ranYGw5tJS3nBikcfhFjye5P/2ltyA4C/P6/h2PVok8TqpPFgR9NgDdsFdIuTi17eSSZuB834mqZAwbajymvQABIfHpx2r6xdaa42lCLFg//CMM3ro6JjMEEJziGaNNvlYlcE6znFjAy3f5m5PRH0m0B/it4CIhKQUaYmFhmpjojy/DzEypoRU3DvBxXGm81pSB+P6CRz+rSlNeTfWG3CQlteuoZ5LaZqgk20O0eK9V2JWJBbUtOLHRXhExy42iReQ8hr29uN8dtWZRAchVJG/Ou/t5SMJnBHLa47rvbh+dmRpH/KA0yFzvwBn4jirLtN37a4LhLrlgjcJ5SP4Cd0IJzxzvmE8UQ8C1tqkaTNS68Sq0aH/auGMAy1ODtxfGpCH6lJ4vXjBVDFRYma2HvXZyTA0FH3mmd0qR5DXl/RxrQuNSTpU/hO4hOSfuhiTD7t6xfyNZ4xkM41TIScOEcg3fRdNi7jST8+vPzzto6NtHNd9Pmh59L9q+chTl7du8jyChpGhpB5vOe4tQ5BaagNfw8vYgh6dp5aTlkLhGCGbw3gudllcYXlOiP8+nVVscXTZempOZGxD/ZYQl6BLDVFFFfbffkietuHKM3EG4R2fqUcHmo7H+u+qNYmzIEcTmkPWBUSmlTajJhDXcE9N4ZfJcRF8SQAtiGh63kfUxCaeqzSXIA97wxB4XxCY4vI6o5ksAcBObHOGx/yjnRzXddLLY+cV0zC/2WqzDw9aXrz6rzzlKK9eW+u2z/Ir+Ok3oR/A9pvlhQVt0IJjC96LYwTVe/1tZ9e5lBWJqMNCjIPIgZVP0TaBy0hugDLLl2x4qesiv319WT+/iwybbv3nwzy23LBybtRBdUBmk81mNZyO94oowNt61rqUmdrzv4hDcWMPcr3mHoNdNiFJOwynIxfNXpZZDxulfLzjuK7ChZ7JgDu/PWcbtppfDEIBCTeK5aCk0dnVdfrzT3I7eG0kNQHHmWuS5voVdY45e06HzM24i3K6O41gFEFIPCQAmP4foYrluPFR2zD+nV6r4WLyEo+PFvvAk5h67zX93AKDo6oahv1SR3qtAfEXVzZOT7qGyp/nFRumJX7PL8gDPlR5DYADPmZj5c65i7/+0ekasw/bx1ycAx239l5J/TS62sxxkxlCaA6xm1vy13hEVpg5Z3ex39wt/8bNOTa77dWtnWRqBIZIS4wNVBsT5EHu8+6IkTElpEJjvjVc3PiD/R5SbkBSdEcA5dlFimK9AQe+EERsOd/5+MwOnzjsumJV6jDV54bP8ZyzbJ3kWwECwZS9ALnVwTvPbh0N98+WOgiefeL/n38XIW7gSMprzlKT+A+/wq4xZ0+J9h+775CvIpib8uIig3Fzf3CAF3lY5ctHNIPElQSZ3yyeuONe57E5nx5rEwtXCDUzt9+yIvdPb6Jd4uXlmBmJ18ElQDB3mCgxU/l6CDKpUn8eRv4M+pI+LqupKW+tZ1iF+G0PDLq6GJMPa2rI8vHdUdmHvsQDXypUJCeOP8g3/397Z+LVRLK28X8I5qBex1HH6zLuK65gIqsw4IYiuKLoqGgYFUYdHBzhwocLg+OKM2zCyGZAcUkCRkyURYhLgrRChwtZTn+nutOdTkjCFtErT04OdHdVv/XWr6o7T1e/Xf0wdfKaCxo7KKa35oDPzPPkJoVJm58YJVnLqr21gQscIgk9/Fg4UXJ/vmWYIZ2CuHO4q582cqxJLjr+GqTMnkx+ZR0+QmczqXPCZkydd4i9Fyr8wlIVseMDZFy8JW2kuxuy13AHoFvsbA+80GynZ+0z0uQ0yR7LR6ve/JO63v+oYylskhAcQrX8xZ1gybMn2yeuSuZCU4w03V2fHeggrxnGtdueynKoPlZA4Esg4GV57Z8q13X1WSwWSx/9Wn5q+bR9ZICTrpPNWhT/18v3PWaLxWLu6Wgsu1HS2G2T1z/eeEN2sFgeJ/v4Jj/ili2Pj/I/US3XwiavO1v3mubsdrXfz79V20ZGV4mOFI5emiaRrHZ5Ld25N3r5lnzurqX9PEjOO26SxO0h/m0gMkvO3/ByXxfn3cdvv6LpsNW48+X1rd8vOEeG3N1Xhx9mI6d7dXb4POk5FRk1bbkePGXLhUbOlKWv+408ddX0feQZQbFyNSmyDpdytwgFeW18kDxnXvzfLzsF7nev2bjfirLHQxtpe6CztffNzZh//Zj/ytYMb65H+5AG4tU9CT9ddeZR/f9JZyTy2sJDjQgTQUlwgFiAh4vbuW5i7umoL75SoiGdgTFTj89FzInMUZCIQPex1y7lNTG7WvaPYLbz5Y3tU5dkaBjGau6SJ8+efOIRfxvZUV4fe8xV1dyjzZJOii+hTG01169VN1G9pLNa+rqeZKyedIpcbgzQENHXbf3Y0vexfO83M39tZKi7CROkGQ3CEVFxauGA8rqfP9zhM2xidoUn7lTDwWXtbb0a8U2YEP9FjhFWFHvoAK5L534mbeAtFsub6z/6HX1sIb2M9Jag+ISNS2LyuUgfQSiQ+S1a/967cvGhUl2/2Gvb9ZKro4A9rLbuOygJtMUds6WzjpuppvqGV0I8EtdBreaumuSZ044LoV3i0WuGoauPTF+e9kh1QTLtpyr7mDHZ1/awgekhH53FqVhbPflDie1ub25Ecj1hcOcTT32Purt32vpz9aJTTezM4GutDEMO/+XJd9v4I+39y5sx3y87z87ZR9rFNRMOgv2Eya27z8+eZI6UCKV01BfnscczaTjh3N738e7ecdN+beSsCX+HadZ2BjCUH1q0bO/f7B0nt53Tfv6h7iXO3MCDsvR0YOKRAAAgAElEQVR1tf+TvHpmcp29DbmIatNrIWSLVMHTj4UTJbfn26Gegjz8tJFjbdMl+6/B65rU5bMSytlRBAGrw60SkyIzif9l4INDGi/O+2Z3Md9l3r/8M8b2a+u2NdkeKHQzS19Xc9W12zXttuCQmL2H1645Y0MpiHjHw1w4wTJM44X543aU8MV3vszbanumX3Swu3KbNeimLEuX7mWz8Cy7CAUWQeBzEfCyvJ6+JEZ2o7JGXisvu5YUsXrtmYfsycukyd2+LHRfxt+VcnltdXFmzIp1mQqidsjhtCY1X14rl9fKc7b7+G7P4ZblF/kDnmGommOBKyKOXiuT18prKq8eiPBPKGOFpKAjOXr2kx0x+820ZUkOT73YlbebJHEbiI5zdrP9lOG2Ls67f7dgVUJWaXWtXF75V+a+0OVxNr3gtjoiec0wJkWG/8wNWc+7rAwlT163YmtmMTFVe/fGz9Grgjl69l8Ocdl29cCYtHlbl4XvySyokNfKq0sytq5em6lkuTsGbAi7GFsKU4J85iZdtbVCbX5KIGmgevZJSlIKCT+du3FzyLRjtcLvkvsakT2c5DXDAgw+mHeXVKe6ODNuVXCm2kQeO3t8Pmzu5mz2eU7uB8Y2oimqnXO7EONcTIhJkxvnH/bT1fL7cnltVUHWvvVr9pNfFfPbx5d2L196iL0eYS05yuutF0nfI56ci1kaW6BjGF3R1mVh+/+vtMrW38KX7S1jH5/y3BCBKflsN5bX3r14ULLmN/Jjoyvasli6+/JdUsTd28e3LJ8xwSYEWU/sPZarIqs2+vkzMmLEJs9R1KmGjsvYUngqavaaHA3fHKQtOMvuO4Cb0smRG5NjwyWX305ZQ1ZJLyMNOm6y/1F2mJmUJLQ4iX9NWLPksO2gFrb362Ccf/aTA/HhX3M28B1L1LU6y3bM/H5X+Qe+RuS/+e3jC3v9FyXZFYujvGZM6l8XLti4Mfz7pPvCESA2ILLPKXtbg9oOJe7Iyk9dbbvQGtT5hMSfuDsJMMa609IlMecKqmrl8qqCzAPhgclyVm6ZtHnblkckXmVPyFWFGfsjV+7nzpysY66ZcFVx1TPd5GdPMmH788pJJ68uyYgLkLDHM2kg/txeU56XuG7t2X5vrnHfNNy5y41Z4QJbV7Zjjv/h0o5eD53Tfv4xaXK2r4zjT6RXfwpZtj3XdrYRN6C97qQKnn4s7Dm5/d2cb4d+ChJOyDa/RAVRNTLJ6piMkmrSkcqvyzatlGaxv6XiKtiPGoetwq8Y/fBswNLoNPZ3oaow61DU3Km220fuWpP0wGNCN7tffvVI+IrEUv5m6YRZwnlbNA0Ap4b5w7yq4Ncti9gTLGOsO7t24Yazf1WwPTb7yPp5/3YavXbtNmvQTVnU3QNrw3M0/DiQgwGsgMBnIeBleX04X5mTvDmEfVWBLEf87jBKXZiWGBkkkQZFxKfmKGx3CamK4+Q9CG6+OexAC9F0uhrBbOKZMo3tZ02bIw0S8pBbTslBMlZFEbOhx7nfGBbroJLEDUAsJFfaxwS0FyXSi7ywcF0X8e7kvLw+t7KUr3JiWqmWv4/stjqMJidIYq8Pebg7hFPDjEGRkxrH08tX835RlTLpcbsOsHnggIVSF51OjOJeNnFSaBHnHfldlD/7TFm8xqk5ls8WBS4zTNPllb7jpstEoz7ua0Q8ci6LbFLn96+OoTw5PI6bLIXsxrskxsowzu1CjAvtYtSUpiVuDJdIg0I2Hsys0LHD1VR5cviGMzX89AKcZRs0ApyvrEO3VOef3GPrxolnigTejKeGcDBVwDe3vi6Lc0kSeTCzojJnq7i97N2Sq6U7f0ZCzH2nGiIu7UVJ5MF8kRwhbcF3VzdHqLsuTRpXIM8urLXdkScNGi4TH7r8kWjSXowLPS7IbntPcNHBHPoPIRCfJ3oGTuha5KGFZXv4x624NqAqZaGbT8tFYQzaiw6nAoZpurTG55tZxx7Yj2jHTirYZ6vvXFOh4kJPGPh8wtp3cxJgz4/lmQc3hAZJpOEbErPKuY7P7kNry04n8j05s1JIcc/ERkE4l3LrnvNT6vyT8fxJhj89kQbi6x6y8eDp0lb+9hFnkvwdplnRmbklf6cksUznoXM6dA/RmScxrUB0YNt9GtzvCJvf+fhlT239z7fDOAXZu5CLgvTKHO59QNKouBQet6gCxA3+qHHYLPoVM7UU2ZosdLMsv6Ygxf5L6rI1iR2TzqGbtXD9n7gaJ75MsZdCksR9IFM4rIRXGknDNyTnywtTuTPJQG57KMtQfiQ8IoeM0+ADAl8IAS/La36Y7Aup3Wdzwz609tlcGFbBTgN1nA3HjX0kemTJrziPDQswdnJDQDQ+5ybHJ9hsbSuUia/CB1dE35sb2ycsPIsjYHC4kAsEQAAExiIByOtP0upfp7w2Gp43NpSm/jhz4y3RDHifBCCMjjECn0Vem3RaYTx3ULyNBk1jQ1lqxJwNN0VT0Q1qV2QCARAAARAYQwS8KK+d7meNIYj9q+r6Jlf/fF/aln73wYmDwsZnNzZFB60MShDfCfzSagB//jcJuLjP/gVWRH09Jlq6Zt0ecajJF+gmXAIBEAABEPjMBLworz9zTVD8JydAtSrUWvLGCHxAYEwSoFqUOALGZMuj0iAAAiAwNAKQ10PjhdwgAAIgAAIgAAIgAAIg4IEA5LUHOEgCARAAARAAARAAARAAgaERgLweGi/kBgEQAAEQAAEQAAEQAAEPBCCvPcBBEgiAAAiAAAiAAAiAAAgMjQDk9dB4ITcIgAAIgAAIgAAIgAAIeCAAee0BDpJAAARAAARAAARAAARAYGgEIK+Hxgu5QQAEQAAEQAAEQAAEQMADAchrD3CQBAIgAAIgAAIgAAIgAAJDIwB5PTReyA0CIAACIAACIAACIAACHghAXnuAgyQQAAEQAAEQAAEQAAEQGBoByOuh8UJuEAABEAABEAABEAABEPBAAPLaAxwkgQAIgAAIgAAIgAAIgMDQCEBeD40XcoMACIAACIAACIAACICABwKQ1x7gIAkEQAAEQAAEQAAEQAAEhkYA8npovJAbBEAABEAABEAABEAABDwQgLz2AAdJIAACIAACIAACIAACIDA0ApDXQ+OF3CAAAiAAAiAAAiAAAiDggQDktQc4SAIBEAABEAABEAABEACBoRGAvB4aL+QGARAAARAAARAAARAAAQ8EIK89wEESCIAACIAACIAACIAACAyNAOT10HghNwiAAAiAAAiAAAiAAAh4IAB57QEOkkAABEAABEAABEAABEBgaAQgr4fGC7lBAARAAARAAARAAARAwAMByGsPcJAEAiAAAiAAAiAAAiAAAkMjAHk9NF7IDQIgAAIgAAIgAAIgAAIeCEBee4CDJBAAARAAARAAARAAARAYGgHI66HxQm4QAAEQAAEQAAEQAAEQ8EAA8toDHCSBAAiAAAiAAAiAAAiAwNAIQF4PjRdygwAIgAAIgAAIgAAIgIAHApDXHuAgCQRAAARAAARAAARAAASGRgDyemi8kBsEQAAEQAAEQAAEQAAEPBCAvPYAB0kgAAIgAAIgAAIgAAIgMDQCn0BeW7valCqli++zdz1Dcw65QQAEQAAEQAAEQAAEQOB/i8AnkNdU8bZvZi8JlASIv8vm+H0TkNvyvwUH3oIACIAACIAACIAACIDA0Ah4X1731h4ZN/u3J7SRFn07q49NnZn2bGi+ITcIgAAIgAAIgAAIgAAI/I8R8Lq8Nj89v3TyiUcmBw4W7YXAyYdqaYZhLB9bla3vuyld8/MGpUqpUjcZeqxcZpLU9N4s7Nn3vqle2dRJNpAklVLT0SskMlaj7rlSqdJ12zaZu/XNjQ0kKKXhRVtnr8imh+Jevu+zWyRLvR3Ple1dtp0dk7AGAiAAAiAAAiAAAiAAAgMR8La8tr66Iv1uRwnlWO67W5ET44rJRuubWxG+G9Ju3zgr2xEhDQoICIxK/rupm+hZkvTtbjYXwzB9VHP5aenEiTvvUFzShInjF6Up+Ojtvs7nN/Yu9fOd8Ws92dX4WnOvIOtwTERAoGTV2qjdZ8ra2ZwDFDdhW5HewVPz04yFU1Lv6TSqBh3rlEMqVkAABEAABEAABEAABEDAMwFvy2sSeB2Wr3MstKdiLx94/bFkl8+kZUFH8tR6MsBNt/y1a8rEhGojwzAfS3b5htxmd+37+Ko6K37Z9G/GhbK2SFJA5PoZc5KqaStR07qq32MDQtZM/e6InGas3c3XDkeHpxRp9CQiRa/O2jJl9i+Pyai35+J8VjtFg1tf/Rk0cWf50yth38/7VeE4Au9YJayBAAiAAAiAAAiAAAiAgAsCXpbXXOD1c8eC+h7/MsMWeN376MTs6bF3RPLbcCPaL+qWgWFI0g9pGoYxd7VXX0zctO382V3j5/2uIREbJOn3pw2n542PvaPv1j8tOBYZc1F+NW58TImesegLto/zTy20z1VSeVo6LqaQ4nb0UJxPfB47w0lDYzMXoUIVxhJBTysuHj5T4ziu7VglrIEACIAACIAACIAACICAKwLeldcDBl4/y1w07fhD0bCw9dUl6ZQd5RRjYZMe/Ldbdz/v8KZtOeoPbJwGycsmnXxoMqnPLpi0PT3v9Ja4c3X63pr9E1ddbmWsb6+Efjd3ueNEJYEh2Vrbju6LmzpvBbvX6sDAyOP/vDUzvbU/2QS9K1TYBgIgAAIgAAIgAAIgAAIDEfCqvB5U4HX0jXd2p3rfXNs2bXuxngu8jruueHL92IatOWqascVp2AKvv919l0Rut+ZJpsxYk1yuZxhzw/lFbOC1sTzBd9l/lPaJSj4Y3r1932WyxXm7L27Cttst7F76ez8v9Nt4+z0XeC0W/3ZHsQQCIAACIAACIAACIAACgyDgVXk9mMBr38BzT7r6LBaLpc9oaCk5Fbbs5EOaC5JetC/t2IatmUr2uUhbnIYtJjuMi8lmWvIP5mjJ4Lf1Va6EDbxmqJK4CRP3lnT0mC0Wi7mns63270J5qy2Y28dDcasuaokb5p6Oe6kr5sgedHOB1xTDmD+2v2gWz1IyCJDIAgIgAAIgAAIgAAIgAAIM4015PajA60UrQvb9USavlddUFmQkrgtPlZMYZxJdPWGGP6+tGVGcBhd4TUKwxR+qgAu8JkPa+RuW/hB55nZFrfz+/bLLso3hqXKi0MmO090X57M1q4K4IS/N3rsmNk9jogrYwGuGYd4W7l0TdUmL6fnExLEMAiAAAiAAAiAAAiAwCALelNe60gRJplIUWE3K11ckSc6Q8WlbdHWluiB5c4g0SBK6OTGzsoUkMAyjK90TFGcbt+Y2lO2RZrFzd5CkzH6zeGhywmPyW7mdGX1NZiJrM3LnYcEmF8ztvjiJNIh87W5oc0LDc7WsN4UJIfF5Gqea2ArDPxAAARAAARAAARAAARBwS8Cb8tptIWyC47TWnvN6IXWUi/OCxzABAiAAAiAAAiAAAiDwv09g9OS1aFrr0cA2ysWNRpVQBgiAAAiAAAiAAAiAwBdPYPTkdUt+bEgOG3sxKlBGubhRqRMKAQEQAAEQAAEQAAEQ+NIJjJ68/tJJwD8QAAEQAAEQAAEQAAEQGDEByOsRI4QBEAABEAABEAABEAABEOAJQF7zJPAfBEAABEAABEAABEAABEZMAPJ6xAhhAARAAARAAARAAARAAAR4ApDXPAn8BwEQAAEQAAEQAAEQAIERE4C8HjFCGAABEAABEAABEAABEAABngDkNU8C/0EABEAABEAABEAABEBgxAQgr0eMcGwasPZS796877GOzdozDEMAvO4cwwDGbMuj4iAAAiAAAiAwAAFvymujTqVUkq/OyJVq7um1kCVrb0/fAH58vuRP4+SnsfqJKVl6bO1k7ukxD1CWSVd9KeXXwpZujwK7X5cYwKq75H52huKqO6Mutg+h2Uy6e5dOnC1spgcAwB4RSiV/TLgoFJtAAARAAARAAAS+KgLelNcKmd+k+asDAiXZ5OWM1q72J4+ajQzT29H4sOENS83c2aRseu+k3FxudIZs1PGqnSitgbRKX+dLlarto8XarWtQNhp6na0J666cZBhzt6FVq1YpVcqG583vaN7fvvcv6lWvPlqstK5B5dlq2+PHzTRb9bqnXNWFIr23YGfSz6b5fZPtIodF8NzQy/BM+uXlN/R2NMgb3toaTkPxm93+NynOL1m683p7D5/DBR9NtiQgcPW87/xkSj7XsP47di3Gtatm2tD64qlKpVQ2NDbru4VmG1lncO+vSXFu+ZL4m3YAQsfo63yhqn/10cIw2uxAScCKRZN8f1a4N4QUEAABEAABEACBr4mAl+V1+J8vaNpoYhjGrL8RG5Xz0sz0KM6EH6kysGN8hltRvhtvGBwButzomIVhlDJfm0RTyPx8BhJrb4tj/z1pT8kHkzJt8bdz/+P2VeyunLR8bK3KO7M7JlISKFkTHBV7PK+qnRuhfFe0dea3u+58MKnSFk6Zk+nB6s1tkRfYqqeFHarmqu5cIS+s25n0M2a4EW3DZVL8tmDSggwt87Y4jmXSL69tg/FhasShqg6rxZDPNZy7jPbtVPnB+YuS5PwAtis+JiNNv7iy3rO8tho7O3s9DgIrZH72rsW4cpU025VTe2LDpZKAgJD120/kVrVzjo2kM9jr6nKJqjw4Z2lSNT+AbVLaOsbbkm3Tp+wq+cAwjIk20tqr4ZDXLgFiIwiAAAiAAAh8jQS8LK+jbvLaubNs2+SVCaVvmZcX/eetz1L+l9BzqaRdbnRmbZeSg5HXJk1utH9CKcV0ypOks35/7myNX3fhpPVDVfLKgF05ch1FGyldTeam+d9uvdNBxJ9Jc3nTsj3/EKuHg2ema3grzv87S+O+899Pqn5h5dywbKUwvOuccYTrdib9DNnlNfO25vC6OekaxqS5yjHpl5nb8Oy36QtDs1Q9dPV+ruHc5HPY3PLnuinbS1g67vmInHHYWVj5r+JqVlF9G+U+gkgh87N3LcaFq9YP1cdWrY3PqdFRRprSyTNjZk+yOTaCziB46Hah5UrwZFv3YBjmna1jmLRXNqzYXcbfASA9HKPXbhkiAQRAAARAAAS+MgKfTF6btLnxQXGFOoZ+eDo0PL2ODcd2qaSdNvZ16ZqfNyhVSpVa2y4MatqlpKO87uvStTQ2kIDvhsaWd3xAgLWt6OiJGophaOXviblaMpru8uPCSRPVola38MKIYRjN/y32TSwn7lvbCmXH5cSqIv0nj1bz4qQ7C3QMXZcWEnqujiZlG3X1ylYSLsB9yKqy3h7kYvnYKqwKBByDHEgQTSvV261velqvbOo0i0b0yd2Cbn1zY4NSqVI9bdJ1tV/nR68ZWpl+IE9jYgQmvAtO/yl5cnhI+kOaac3nGs4p3fWq7nbExG1FHC53fAaU10ZN/kFJ1MHsuy/eGQVCDuU5ymsXrpqoVrW6VdRs2uwlfgm2Zht2Z3DwwfWK7q/1E+IKbQXzHcPaVnA0hfQU7gN5zZPAfxAAARAAARAYCwQ+mbx2Cc9JSXN5xBstH1vL/kzaFxMaKAmQRsYcyihqpNgYWpfy2kw13b2QuCs6RBIQKAmO3pWSV9XWxY4z67Q6VlPrtVpB5Lj0aMCNvc+yVn+7+y6xYuKtGjRDt6pJn+8beeuNLQTCWL7jW99vJu69ZxvZtr65FfHN/HQtw5ipprJLiTs2BQdKAgLDonek5lW1s3ViDDc3+kSdL/k7MzEiJOBoBSWS11bjm9o/TsRGhQUEStZFHEi+eiVFysdj6LVcHLXg/YBVtmewdL1qqH/R6X5UmWGaLq0Zd/QB20ZCCU58BpTXpEBKcXFPSGzaXw+aO1zEiTjKa7uDbpd6GzPWfLfDsdmG0RksXW0NqpfvPQFovrRqYhIHgOErbtJpuP7H+Qd57badkAACIAACIAACXyGB0ZfXQacrbBOMcNOMKCvSJHxAdm9r7o9zN6dXtFI0d4t/85x1WRoiQV3J6x5NpvSHZQl5ar2Rpo16dd7uJdNjbrzlH2nzQmtZew3VKaumb76jG7kxzW8/+MYVcGK/R753wjx//1kzTjzmHrukCuJ8Z6c/Z5geTZZkxoqEXLWeNtK0QZ2bsPj77VydiLwePzfgWL6G1NckYmIxlO1bOm9rpsJA00Zar85NWDGFD1UfkeP0g6Q5M7YUvvNgxCRP8pH+4ZGPK3lt1Nla3zaxBtslSs9tnDs5JKX4qcF5vruhyWvSbKnLZ8SUeHTLQ6WEJPr+sdnTthW8FTb0XzDJD/tJcj2WBHndHxu2gAAIgAAIgMDXS2D05fXUeSvIYLP9S+ZV4J53ND89v3Rc/HWR8LoeP352utq1vDYrTs+YkljJhl5wDaS/vWn8AFJvCC1p7e1oLD4RNV96XuE2umQI5kxPUmfYhqt7H52cMfv0g6pT3y9KVxF93XNv78QffnlqYsyKU7Mn7xPXyXA7eiKn3oi8niJ7aPdFuOQw3I7yC7kmUnh0+d5v+dHrIbjYP6uuNCUpnwuucRTE9rAW5c8+AwQWu5LX2hx7BxA6w2r/6f8aN3Hm6r2FrfZask4NQV6zzZYcvSgwQ+lkpH/1Bt6iKzt5JF/DGiLBOfaLAfsEOI7RSq5MQl67ooJtIAACIAACIPC1Ehh9eR15RUsGm+1fMq8CJ68NBdF+384jU/uJv+w0f4KUZAQ1YyjY6BN9i3+Ukm2gZ5lzB5B6g21Hc1e7qvB09NJ1slLxbf7B7u4qn+lR6gx2uNrccH7p96mPTfT9Q1OXnm8wM72PT8yclfrExDCEgOgZPmLmWcYCbqYUIq8d6iswUaZMcBLTTXmrnLa48mhI2xwFMdso7P7Kn32+PVXvyZQrec2Y7B2A6wydumdVl/eHSXflKPvH8wxWXpu72uqLftmwfG1ymbeaTagZVS4TdUsZG3hCEhUyv4mpDUI2FwuQ1y6gYBMIgAAIgAAIfLUERl9ee5iYjyqLm+h/9skHu/j+YHhrYKc9E6SkXV5TZTvGSy+/Ek3o1vcodcaUM2Swe2Sfvs6W6gt71y4NP1nhoN5HZpWha499vyijoac1RzrjSK2RYYyV+6ZJLrT2NGQsnHbqERkiJQQkFx3rlDJ78qlnZNoVt/K6MX2mX2KtKEDY3HB+kbfltaMgFgaG+x785CO9/soTGpfy2mEHc5fu+d0LhzZGnHRzMTMoed3X2Vx9aZfEPzSlUu9g3ksrZJJB+5cn0Hf/gJ/kmmcAmDnES00AMyAAAiAAAiDwv0Dgi5LXTMu1sMnrzta9pvssFoulr6v9fv6t2jYiZFzIa6blevCULRcaO3rMbO7uN/LUVdP3VfQf+yQTa1BNqoa2LtfzUogbytrb0VR2ZvPiVTuyHr0ndtmPSMOLM5uppvqGV4Owyu1E1/40JSjr7tWIKUdq2JgW6s7ubyOv/pMdNOXwfS7IhRDYdMlep9c1qctnJZSTOrmX18YHybPXpD7o6GGrZ+npePyb9Bu38tpqfNOo0nh41469htYeQ/NLnaf6WbQXAicfqhVF6Nj35pcGlNd9TbePbQg5mK+1ve2T39H+f0B5zTZb2oYlAXFZjzv4VrO4b7bBdQaGAHjhGcCLnDXTfqpx6zmpA0av7S2JJRAAARAAARD4+gl8WfKaoWqOBa6IOHqtTF4rr6m8eiDCP6GMjSl2Ja8ZSp68bsXWzOLqWrm89u6Nn6NXBWe6iZPuLNv172l77pIXfXj+UHUpQeN8V+75o0wuJ2bZb4Ob5yU7y3bM/H5X+cBWbWVSpbunSaRBk3f/Y7sG0P+96dsgiXRaQiWvz6gamWR1TEZJNSm6/Lps00ppFlcn9/KaMWkvbly143zBfTJB4aOKnH3SJdPdymvT04zA75dmuH0rjohPT8O59Wt/8lA/i+7PyCk77ri8ohHsDCivDeXp5+QeB5wHlNdUXapkvJ//3rxSe6vV1rtttkF2Bqan/nx4wGFPANqvRUzaPRAAjF4LnQELIAACIAACIPD1ExhdeU1VyqTH2aFYEVnHjSZdTU7y5hBpkCR0c+KZMo1tXFSbIw3KYRWhJidIwi0RGwZFTmpcZJBEGhQRn5qvdqvzhHeLiAp2uUgKkjh/+/ls21V40YxLUy42UhXHJdIgmX2EXVe6J0jixESvzEnZGUF8iIpLsdeJ7JtcKaqhnQkJK1HnyzaGcxxyFOryZBsuF07wL5pxkeS0iVamR4bL7BM4OyUzva0XQqbGFntUxgwzoLx2Ntt/fUB5TXqFc6uJOTuYHHRnYGjFuYhQdq5zBwPCSm9rTviUmJKBAEBeC8SwAAIgAAIgAAJfP4HRldefj+dAL1UZnmfCi1SGt/tn2ot/0cxIi7d8rEmVzDxyz2NkCLkEEt7QPuwSB5TXQ7Lsrc5AAATMOVzN33lw5wSCQ9yRwXYQAAEQAAEQ+BoJeFleS85UKpUq+6xtXwwy4ZUnXvXo01j1qosujPEvmnGRNIRNZkqdvWnu5kvu34nJvqtSpVRWnhbecTME+w5ZFTI/L3Yt7zSbmVJnxczZ+Ac3bZ+Du/YVo06pYmd2x0vR7VCwBAIgAAIgAAJfNwFvymvhBr09duPrhjema0fJz4TH5XgU1wzjrS7hLTvebDGq5nTozoEACLFGFzXeLBu2QAAEQAAEQAAEvlwC3pTXX24t4RkIgAAIgAAIgAAIgAAIjAoByOtRwYxCQAAEQAAEQAAEQAAExgYByOux0c6oJQiAAAiAAAiAAAiAwKgQgLweFcwoBARAAARAAARAAARAYGwQgLweG+2MWoIACIAACIAACIAACIwKAcjrUcGMQkAABEAABEAABEAABMYGAcjrsdHOqCUIgAAIgAAIgAAIgMCoEIC8HhXMKAQEQAAEQAAEQAAEQGBsEPCmvDbqVEol+fJvbTT39FoIRmtvT9+Xh/ML9s7SYwNm7ukxf1pyo1jUp63I12edfeMjOaD442m4Vfz0B5J6ACcAACAASURBVKbXXB1uFbEfCIAACIAACHxBBLwprxUyv0nzVwcESrK1RFN3tT951GxkmN6OxocNb4Q6W6hmQX8T5U3pWhobVEpl/VNt+/seVo6zeS3GjlatWkXkRUNjs77bpcy00rpnKqWy6b0tte/9i3rVq48WK61rUDUaeoVSnResXW2PHzfTrHd1T+3eMT3vngnWGHNnE3fBYP/b1Gl3hLj44qnKwUMXuyhVZCfBpb7OF6r6Vx/tNXX2rbejXk5csna1P36kpZyTRetu6Fm7dQ3K54Zepq/zpUrV5rGoBnnDW1tjaTwVJSp1dBeNupHry6F7TBCqmih7Ww/dxND2cNE9tNmBkoAViyb5jvSF6oM7MPv7S7pXc2ODUqlSPX3R1skfnJ/S1f5OYAsIgAAIgAAI/M8R8LK8Dv/zBU0bTQzDmPU3YqNyXpqZHsWZ8CNVBiuLxtrb2XAu1E+m5ED1vKsvOn8oYUOIJCBwXUh04q/5yg5unLtH/+ja2Z1bIiSBkoCA4PBtx3PrbCkixFZj680d8yeN9914w8Btfle0dea3u+58MKnSFk6Zk0lkvsuPWX9zW+QF1ru0sEPVNu8YS7eu5PBMwRrz9vqPPjP8AwIl9u/RCpsItRp1j66n7dwaKpUEBIT8uCM1r1ZntDJUucyeOVASsHrZ9HHjthR0MialzaW3JdumT9lV8sGlYwzDGB+dYl2yGPLjInKa3Cs8t/RMit8WTFqQoWXeFsf9e9IeD0U9TI04VNVhtRjyucZy59Nn3K782WfE+nLo7puUaSvn7vmnc+h7DnMPV93DRBtp7dXwAarf97Gjy30nIe4oZH4DHZguvO55V194/siejWEBgZK1oZsS0m4ruENw+K66KAWbQAAEQAAEQODrI+BleR1106Zzmc6ybZNXJpS+ZV5e9J+3Pkv5X3Yo+GHhmaBxvry8tjy/HL0y+ESRRm+kaYMmX7Zs6sqzz8iQc199pmTx1vSKVoo20lRr+cnQSf4ZjU4ioqf9dsKaZRsjl9jltUlzedOyPf9QTKf8cPDMdI27BussjfvOfz/x7sLKuWHZyh6GIaOktbnxC3zs1hhtztLxslqaNoq+5NqBePimKH7l4i3plS2UkaZ0itzEwOh0ldHKmMSZjR8112JmLflVbWKYdzaXTNorG1bsLnM7VKxOn8m6ZKxK/N4/oeytuzq4p8e8rTm8bk66hjFprkb7J5S6LerZb9MXhmapeujq/VxjuSvrM27/PPKaoRRFufJWW2OPRvXddA/DragB5LXuTtafVVq90f3tEIXMz9OB6bp2lueXN/mHpBRoDTRt1Gvzk/z/7X+2kb0fNGxXXZeErSAAAiAAAiDwlRH4ZPLapM2ND4or1DH0w9Oh4el1RoaqlEmDJNKVMwR5TevUaq3eLmGMJfF+iy+QIWe9Ij+3Tmdn3X4r1HdLfod9A4nqKE1asTRJ/uxWlF0QW9sKZcflFMPQivSfcrV20+I9GYYxafPipDsLdAxdlxYSeq6OZhjtRYk0SBKweLLdGvNE5rck+4XTvuxq77OzK6fvq9Db04w6tbqFciqxrzUn/Nt111pINt4la1vB0RTio5sPJT/OudSSv1MSXySi4LiDe3oMrUw/kKcxMda2oqMnajwVlRwekv6QZlrzucaylWDufsdF7KgatK0dduHGBuw8reejBXq5WxLspUl9W0dnm7aBBPk0GXos5u53TSRspuFF20db3L1Rp3puoHnLJBaI4iPySXCwOMCYDwghkTbXdvr47rzKxvTzgTl2NxoaW97xYUMkcyvV261velqv5LMKyKy9nW1crJFKrW3nfSLJ1t7Odq2tUk26LptPxJrdpb4ucQgTX2+jTvXsHU1256KbmhxCmMQl2u2SK7MuXfPzBqVKSTzp5I256R4Dy2uDPH1H4KYzNx61CTyFWnMLDvK6/4HplNu2SvqzRnRw0iU7fZZcYu8HDdtV1yVhKwiAAAiAAAh8ZQQ+mbx2y0kpE+S1Ux5rV8kOvx9+7zfkbO3repKxbubxB7R9h77OeymSRT9VGBiiP4RwDpNOq2MVrkHjMWjZbshpycGaufonv8iLz1qJauTEkCBgtDmLph6v6Xrf7hx77WCv5+mZ5TO2FXMj+rxLJp2G89Eh64hXxPT0Wi6OWsAxFOuWj61VeSm7oknEztp1W3anXWtgQ9utxtdPrqbt3hIWHBAokYRtPfh70dMOLrpdKfOdGJOWm7o7IiAgcGXk8ds19/7KOhQZJFm1ev22zDqKHVhVyPwWJl+5mX5oS0SQRBoSuinxXFkrFxeukPn58AFDxFV+xJpE2iyd5eM7awkbn5NUTq4Uet49uZa+f3tESECgJHjj3l/y7r82Ep1vuLnRJ+p8yd+ZiREhAUIMD1dzK91UfDZhExtrJAmP3pddxcflkxCI3w9xlVobHJd4oYqE+HDWbC5ZPrbezUtK3BgmCQgMDo85cq74OReUrZD5zUi6Un759G62RkFbT9hDmHr0qsKMg1x0kyRsW+KlCs6u5WNr2Z9J+2JCAyUB0siYQxlFjZwxN91jYHlNrhZ1palhG4/k3NXoXMWJOMjroXQFUV5rV8lun9kZz8mmkbgqMolFEAABEAABEPhKCXw58trc1ZQX8/2iNIVoAJiMYqqUD8ty4teGn2+0J/R13k+LmL2jjIzsOgjiEbeSgzX9jR/9VseePBhPwk9XrZGE7eQFofnBT75B54rvnD8cGy6VBKwOComR5da+YYWZ4IPlY+XRuQtPkKHxT/5xRW94hfa+uhz5w7KEPDWJ2KFaKtK3LD9QZLAyFkPp3qWzN50rb6Fo2ki1VJ6NnrU89aGRlEIumaZEZCj0RprSXt0yddyEJYmlJLBHLz8+xzf8KjvITzT0pGWxOUp2SNTYUipbNiPqShuJ+HEnr0mkjTzJxzdJzsXnmMhDmNVH1izZy7lHghaOLF2zp8xg4QTx+LkBx/LZWCN7ZyEOGu8ljP9hdyEba6TX5h8L2fZXO9lOrNkrpVfn7Q2IPNvwXwd53fvqctT8DVwUEE3p5Fkb5oZkanpsbk9asi3TViN1RuQk/wwNqZC1qzpp0ZwYW3STXp27d+36sw09DNPbmvvj3M181JNOnrl5zros1pib1nIlr10+Piu/luQ/aWl8zr3Wj05BVASvPTjETTmeN5u7mv/YOn3eWaUjVsedXLnqmANrIAACIAACIDAmCHwh8trc1X4/Z+eaJXtZxSyQ1+awjwkG+gfsPlf45B2RNOSpSer+2bB5m2+yIRefUl4byo8ESeLPldrCT8vSN83/NvJqu5lhDPlRvrPnrArYmVOjo4y0XltwQjp93r5SIvP4T9+r3Mjp66628usj+W9+32Sb9JBcbzhHPrihN6wCLc+yFn6XWG6/JDDptWzQi/6vH30DcjnmrGVT/akZ4w/fJ1qOyOu4UlZpM8zrm5E+08+obaXbb1YQDR1xWxTrYiyN95Pkkg1u5bVoJNtmjyre5ht0usJOo+JMkM/2Ox84eT1F9tClAKT+2T01Mr36RavO8L7L2Gvspmk238c78b4Bl0WVolrUajYmhIyFs6PX5qcZC8fbolO4CWSuxk+ckU7qR9xe/Yd9b33RBt+Nf5F7FR9LdvituixqeqpVrdbRjPnp+aXj4q9zdti/1+PHz2aNuWktV5rV+fFZdmh/zfJFk8dNmDI/5FSdczTQwPKau45lI3BEE2vaXDJ3tdfm7Fm5dF+pqPFcuOvKVRfZsAkEQAAEQAAEvnYCX4C8tvZ2NFVd2B28LDZL4SwMTOwzhQZN6W+R0xYkPyD62vJRdS5sfvRlPrCa/KgLwSEjbi7P1rT/t8Q35JqOYaiybd/4Td5XKVKhquPT/WJFk3T0NKT5T40tFkVnj8A56u5RV7OXsJHD7ukNp8APd+J91t963X9X5anxTs/Yffwn3kberqFt477Rt/hHXO1JzhpapKqdk/jgEOKFeJmsnhrvO2txgIhGoIQLBSGC2F6uUwUoeUpUQPDOQ6nZl24W3Kl62MgFlKh/n+X7c51TXnZVkNeGgo0+kxYsF88eEygJYOeedHabXGZwXVF97gc/2cP+dg0F0X7fziOTV4q/rLH+mTk/XD3a6Pj4LE0bP+qb626mxwSFnyx1EXg0sLy2XcfavBL5wx2ceyXL4jL7HZzOHkNeOxPBOgiAAAiAwBgl8LnltYV+3VD8y4Zlgbvz1Hatauntph3fp9J1J85vbkYjw5jbrkSNm7kz9yE/flmRJmGHM52HdIfXoGJ5bTF2vBY918cwzJtrob6z0xsZhtGcnz1OktNiH6y26i6H+W35i5/JzUpXJ82ZfuievU7D84ffi8zRZv/yI7Su6fH7DOs/VbZjvPRCs6hifUba2GdlGs/P8D0gF80kbn1768dvYgvIFZFdQw8grxNr+acZySN+NYl+k089YxhGdWKiz7HH/IOSjPVxss+EFBXnv5O8Jm7suqXrFmh0dxrevufDOdzJa6vFQuZC18pL8zJTEjYELli6l51gkVjbd892V4SUZ+mlu9l3IQnymgDx/+3xBzv/D4Z3epo4615eN6bP9NvraLeb2KXK4ib6n33ywd6UHwxvDawxN601sGa19na03P/rbExIQo4bBTywvGa461hbHYXu1f36adGpTYsD9+Sqbbcm3HjJbh7YVU97Iw0EQAAEQAAEvhoCn1Vem7vaHuXtly4PSi551WOxfYhu6daW3cyvbevo7jWTrX1Gg/p86JR1V1oZxnEc1/bejanzVki45976NYyZaqpveNVll4v9cjhsEMtr+tnVo6euKd50ES/Mvd0dr4qT5s3inrA0qX9bPjnsvOI1m9hnNGhuxs+f/ysfON735nbMZG4+PgfzDitW4+vGevL2l+F93NJzYc5qfNOo0gyqqJbrwVPWn6vv6OHQdzVXXbtd025i6DrZrNWyf9q7+kiTmHs6X97YPnVJBvsg6qDltf+pah1noK/7dU3q8hl7/yHyvCVPOmHrn022lK6mvO0TJFdsQRfPfp3se1DeQ4rsNTOsG4vi/3r5nvXP3NPRWHajpLG7n6x3hEC/UsjrX3VydTL3KH9b+K9f6slsLnWyWYsOFwuV6qgvvlKi4a1xjzYSICG/1r3pZive19Vem3+7po1IUPfy2vggec68IyVtPKyO+uI81m7LtbDJ687WvaZ5Y/fzb9WyxhwdFtYG1KxW6uF/9kpiz8nd3ycZhLwWyhMWzF3tT3ITg5YEHy9+9V/xwSnkcF4Y0FXnHbAOAiAAAiAAAl8ngc8pr81NN2Pm+k2NTCusqJXL+S950aNJkxu3fP2BczfuVJDt5bd/27lq1QEu9NNxHJd770bkFa2RC6bt10qdZTtmfr+r3O1LXJx2EMtrhpInB6+M/jmvpFIuryy6em7f+tXbhNn+9JXHAldEHP2jqKJWXpZ/evualdvz+TDcnoZfV06JsAWHO5VgXzU9/X3t9IXu331jz+lqyT09F7lNTzMCv1+a4fY1O+JdKPkx6ZKYcwVVtXL5/fKrR8JXJJYS6UYaxT/sp6vl9+Xy2qqCrH3r1+y3ReMOWl7PXL5JdrO8plYuv3v1aNQKSZrtuc+W/K3LwvbnlZNucPfP/cErtubzgcvUvYPzQk/crpVXFd5r7mPd2L4sdF/G35VyeW11cWbMinWZ7FWNp+AQfVnC8og9mYVVpDvdK/4tdkkMN+OhSZO7fVnwwby7pPtVF2fGrQrOJJOUs/OQ2GYOIUCWRciulnFAfgpdnsjV2728JjM/2mtUXZIRFyDh7FI1bLe5ViavlddUXj0Q4Z/g+LyBuCmIH66CQ8R5TNrcM/kaj3dJhiOvzU03ti7w+T7qdCHhzH9bPA1iD+iq2G0sgwAIgAAIgMDXS2D05bU2RxqUw+o8quI4mWra6culMcaWiqzD8VFsalRcykW5i5hStlnIdNrH2RnbXLaS8KIZl6n9Njpbo9T5qXGRxMmQjQczK1rFMsakq8lJ3hwiDZKEbk7MrBQ52Jq/Neik3JMUYQvmX8/Rz4vBbPBIr58B/kUz/RJcbTDpyjMPbggNkkjDNyRmlds1lVFTmpa4MZynIdTY3qYMwxDHkiv5KHp7EitGixQ5x22Wky8qRAOulDr/JNfckTtP5qv53YmsbylkdwndfFLORXRT6sK0RLZRIuJTcxS2MG/Hcp3rRWvLTieyjSUl3UlUtL2JI+JThZKJNVtXJBPfyQW3E9NKtbaW1eQE2fOQArU5oq7orkYO3eZMmWdlPLC8dq6oi/XhyGvbLPVOh+fFfrNmioqDvBbBwCIIgAAIgMBYJjD68nqUaQsvmhnlcgdTHP96jsHkHWEe/kUzIzQzkt37jfWOxNiY2dcbmnU48noYgL3h6jCKxS4gAAIgAAIg8KUR8LK8lpyp7D+x12et87DerDJKHvOv5xiF4vgXzYxCUe6KgLx2R8bNdqNOqVKSJ3d/VrjJMcjNCpnfJz4wvebqIGuEbCAAAiAAAiDwJRPwprwm98rZSA/hpvqXXHP4NsoE+oVSjHL5/3PFkbga9oDyGJIxiGp9+gPTa64OojbIAgIgAAIgAAJfOgFvyusvva7wDwRAAARAAARAAARAAAQ+MQHI608MGOZBAARAAARAAARAAATGEgHI67HU2qgrCIAACIAACIAACIDAJyYAef2JAcM8CIAACIAACIAACIDAWCIAeT2WWht1BQEQAAEQAAEQAAEQ+MQEIK8/MWCYBwEQAAEQAAEQAAEQGEsEIK/HUmujriAAAiAAAiAAAiAAAp+YAOT1JwYM8yAAAiAAAiAAAiAAAmOJgDfltVGnUirJV2fkEJp7ei1kydrb0/e/C/XrqMWQ+Vt6bI1m7ukxD3nvUdnB3NnE9jdlU+fIPDS/b+K6btN7M/sCQmKW78WjUhUUAgIgAAIgAAIg8NUQ8Ka8Vsj8Js1fHRAoydYSTd3V/uRRs5FhejsaHza8YYkJeohTRcqGxmZdl5eVt7Vb16Bqojzrrb7OlypV20cLyaxsNPS6bc9B1KLh+YtWQ7fn8tza/0QJRCO6kIdWWtegItXt63yhqn/1kb34celCb0e9/OkbthUfP9JSbB5y+eRg1Nqte6Zq6vRyA7r0h2HYpnrO+s61HcNQFUmBkoCls3yibxnc7DW4zYYb0X7Tl0oCAmV3KW12oCRgxaJJI34V+eCKRi4QAAEQAAEQAIGvjYCX5XX4ny9o2mhiGMasvxEblfPSzPQozoQfqTJYCTnDrSjfqfNWSAIC2e/qoNDYAxfKWj3IvKHzNinTVs7d80+nxz3fFsf+e9Kekg8mZdrib+f+h1wOuPwMohZrgjdt23kmr0rz2sjW0aWd0d6olPn6yZT9SjUp0xZOmZOpZd6WbJs+ZVfJh345bBuMj06FHao2WC2G/LiInCbu2kEh8/MRGbV2NeftWLPiWKXenRWvbjcpflswaUGGlnlbHMe2HcMwJpo20vKkAeR138eOLs9XP0ReH5Ybua5roo209mo45LVXmw/GQAAEQAAEQGDsEPCyvI66yQ8jdpZtm7wyofQt8/Ki/7z1Wcr/EqZEXkde0RIdQ756bWl6/MIpUVfaPaufoTUHpSjKlbcSie/+Y9LkRvsnlFJMpzxJOuv35+5yDqIWlE5dmr5n9dzVe/5q73FnZ7S3u5HXzDv54eCZ6RrGpL2yYcXuMm5U2oVz6vSZc8OylT3GqsTv/RPK3rJZHOS15aP2wq45qzIVnkG7sD3cTW9rDq+bQ3zXXOXazmZI+fMA8rq9NCuvSvvO6H6snshr0YUD11F/VgzXU+wHAiAAAiAAAiAwlgl8Mnlt0ubGB8UV6hj64enQ8PQ6NhybyOuNN3gFznJvvRToF/U32UQiR8RBtOz6e1Z4W3s727RqlVKlVKm17R+FaARzt765sYEEfDc8bzb0cKPHZD8hhsFMv2t+3kBiURq07Z29/Piyta3o6IkaimFo5e+JuVq3EnGwtTBpsjdMn3u0xhZ0zliMHa2cww3Pm9/RtqsH4lkr1Uu/a2Lr0vCiTfCIrey7Tn3T03rW1Y99lt737S8alCrV0ya+ZiSK/X37i6cqlVJZ/7RJL0SkGHWqZ+/o3s52bQMXv+Egr61GXaOqvYuoS1qR/hOprrWt4GiK3K26Zij58ZDQc3U005K/UxJfpGObSiSvzVR99qa5UdlqgZyVlE6cJw6/s3kmxDTbgvKVShXfwi7zs32glert5jioGrTt74U2o5XpB/I0xHdb29mO2wHltb4mfbt00+mbj15RQs9xPOYhrx15YA0EQAAEQAAEQGAEBD6ZvHbpkwt5/fZ6hF8UGzpruLnRYRhSyGylm4rPJmyKkARKAiTh0fuyq7hg6b6Ouj9OxEaFBQRK1gRHxf7y90s2yoTYsQ1F9ryrzUuJ3xRMYlHCYg9lFGltcSgmnVbHKkO91hZY7NJf1xsFx8TJpkfHp0xMesAK6R79o+vn9m7/cV2gJCBk865TV2q5wBGy44ZzJQVZBzeESIPWBm9NSCtu6hbCZoKSsrMPRoYErA4Ijc0qqym/9EtCWODa1auiZIXcuLjlo7Y4/cDWUKkkIDA4dOfpvFo9N16ukPnNSLpSfjl1V5gkgES+i+R1X2fj9f1r12QqaHL7QMNV16TTcPUXV2GgZUFe93U+ORe+cEO2/bLE8vFF0bmftoQFBwRKJGG7f8m7/454Rt09ygcCBUpWLZ7p9820XXeIqHeTnyFtF3W+5O/sg1HhEum6oC2JvxY3c4QYvVbDXg8IbWfzd0B5TaJIdKUpERsOXbir0bmKE4G8HqjtkQ4CIAACIAACIDBoAp9VXlv7ul9Xpi6ZsbeK6Ca38tp4L2H8D7sLWyk2niT/WMi2v9pJBVsu+I8LPq0w0LSR0tVkbg9Je0BGj0XyujU/PigxR60nsSgGxe/RMyKvv3YfIjBYaC7lNUMkGhsbY+2qTlqxdF+umjhG67X5SctX7C0zWLiQg4nTV8tKW4ifJl3l/rkTt3ERGsTmxAUHy1ooI62vOTbXb9z0jemkapTm2tbJM08/JrrdWHcmPOZMJclDUy2lhxYsPv6A1ddE+E5ZGptZo6OMNLls4OW11fi66mzU0tgcuxIebC375yOlxF9XKlWlZ4JmRF7WCCPXDEPXpYVsTStvoUhbtJQdXLg0mfWMxDFz3872+1lxy9Ykl7OR2u7yk7Yb/8Oqo2Ut5GLApKs4MGd8nPsYFtZHF/Laxai5Ull79cjKbxftzKlu/Wi7myBUEfJaQIEFEAABEAABEACBkRIYfXkddLqCDxV4WHbl8I9LAs/UES3lXl5T/+yeGple/aJVZ3jfZew1dtOshGQ0v8+evf/a06a21x1Ud09fL6csxfKaIdEjGjYSQ6lSyrMifOPdP843aJQDyGuqMNZPcqaSm6OQ/K1Ik3Dlkh2nJVTyESQMozw1bdxJ9glEkuTPzrhC3KiT+flsLbLFboiKI0EyL7hYF5VSefvwzNnpapKfCN+Q61wIB1sNIq/jr6mUD6/vWbL0YIVDOM6g6+mckZQywz8gULJy4bQfs545PJBKolZeNjbYWjb/yOwZnGecDatR56Ty3eQn8npKYiXbH9hdVaemTOQIOXsjrLuQ1w6j5rbnaAPX+s+f5uf373nBZ+psZAUTkNcCCiyAAAiAAAiAAAiMlMDoy2th5pCVs//l98OW8+V8lILb0WuGkqdEBQTvPJSafelmwZ2qh41crIVJm78ndG1Y4vEzF/64XXL3YT03HZ999JpEj6TGxbBBGiQ+xH+6c+T3sPCJ9K59f+urS9KJccUUwyhTJvhNX7yWV3VcdITsLsWNXjuEnttddbRJhKzwqJ2QRIJkfk/cHhPKzbsSuHred7YH8hzyE5+IvCYzzQWsmLHk+D9emjqPlHK4hqaNuoqjy6ZvyKoXZj+0djcVpx+I3xhmCwVZPn+q3X+m733jjR1rViXZVb7b/M59gL0nIJCw0xYvuZDXjH3U3DZ83qVvenjjbOy6sNRSvr+JbEBei2BgEQRAAARAAARAYGQERl9eCzOHaG9GzZKmNXTxjxt23N7iE3GDm6SCVOrtjfW+W/I7GMZqsVistE4rL83LTEnYELhg6d4KMv5ItvfqW5TlhRdPH9m5fulcySUyhZygWc2aTP8pW//DBWnQRvr9P7s+lby2Gpv/jPmXNK+FYZjG9Jl+8bd03UJcRDelf9tJgjgEocy3meCqU5KDXBb2oipixwfIKtggGdpIdzdkr/Ekr8lMc5Q6O3p2aNoDQQjzJQ/nv8grSn501Yx15x/b7FLl2yeuSuaiVow03V2fHcjLa6tRV306fP7q0w/tQ9KM2/zektcO1bP2djQ/uJ0WG7znosJ53JrLCHntAAwrIAACIAACIAACIyEw+vLaPnxrUpxfMn17Hj+dHV177Pslp6o7eswWi8Xc01F9avG0Y7U0w9CvFPL6V53sdou5R/nbwn/9Us8w1k5NTY36dXefhXz6DH9v9938V4dIXlN3EyZIMxq62Ax99OuKUwvdy2sz1aRqaGOn1xiIJ9G70dffsMVaLOZeuuPV02s7ls/ceIuoa8b4IHnOvPi/X3IOm3s6Gu9eK2nsHrm8brw475vdxTyf9y//jOEntxYJX855PvaaYUzqnLDZIeeUDqEc9hpaja8b68nLWgbxcSiFfnhqxTzpuSfvyWQcjRfmj9tRwnvW+TJvq230va/z+bX4lXM3Zj3rseGykKspt/k/hby2Uo8ydwdtS69xPz835PUgmh9ZQAAEQAAEQAAEBkfgc8prhqHKD85ffKSclWgMQz88Fbh8S3phlbxWXlWYHrM8kBvy1JclLI/Yk8lul98r/i12SQyZKs6kzlq7IurYjXK5vFZeU5l7IHjNWTJEah8S1hVtWSzdffkuyXD39vEty2dMsIt7Jz6dZbv+PW3PXbcvWhFlJ/I6MCW/lpiV11aU3Dy3N2qlEhqkhQAAA3dJREFUNEGY38+kzdu6LHxPZkGFvFZeXZKxdfXaTCV5DlAYh+aN2V11THIQskIS/fBswNLoNNZsVWHWoai5Uz2NXvMxFSbF76tmRGU3CrcJ+NLJf9PT39dOX5jp9r064rwOXjGMSZG5cu76X+939jHGurNrF244+1dFrVxeVZB9ZP28f7Oj1+bG7KBxvitl1yo5VnJ5bf1bM3lG03X+fvH3ww0OEbtt0uadzteKxs7Fidwy5HV/JtgCAiAAAiAAAiAwTAKjK6+pSpn0eLn4Bn1Lfpz0ODebBDeZRmbi5hBpkCR0c2JmpRAlS2vLTnPbpVFxKRcV/DikXnHxZHyUhMt/pqyFncuCqjguybHpRX1dVuLGcJIh8mBmRWXOVsfSRdCEF82ItrlZJLUIIja5b+TOw2eK1OJKMQylLjqdyDoWufNkjtLmb7/q2111TNLkBAlVYERJppYiob6y/JqClCCuog75idfaHKktiayxU4+7eQEM/6IZN3UVb+5XikmdExuSzL610dRakLIzggAJ35CcLy9MZf2nypN5SjwuGRvXw7jOzxAgyZUilsQC35hiX0TLrmKvRcmDWYS8Hgwl5AEBEAABEAABEBgUgdGV14Ny6fNkcn5ZyefxYvRL5V80M/ole6tEyGtvkYQdEAABEAABEAABbxDwsrzmJqQT3pnoDQ9HyYbzy0pGqdjPXgz/opnP7sgwHCCvulQpr+10eBvRMOywIShkHkNl03uzUWebSxEvRR8OSuwDAiAAAiAAAiDgTXlNggfYGIAB7uaDOgh4hYAQpeMQTzIM00IQy/FyisTVsN34omYYlrALCIAACIAACIDAmCfgTXk95mECAAiAAAiAAAiAAAiAwFgnAHk91nsA6g8CIAACIAACIAACIOBFApDXXoQJUyAAAiAAAiAAAiAAAmOdAOT1WO8BqD8IgAAIgAAIgAAIgIAXCUBeexEmTIEACIAACIAACIAACIx1ApDXY70HoP4gAAIgAAIgAAIgAAJeJAB57UWYMAUCIAACIAACIAACIDDWCUBej/UegPqDAAiAAAiAAAiAAAh4kQDktRdhwhQIgAAIgAAIgAAIgMBYJwB5PdZ7AOoPAiAAAiAAAiAAAiDgRQKQ116ECVMgAAIgAAIgAAIgAAJjnQDk9VjvAag/CIAACIAACIAACICAFwn8P3OskfQJPjg+AAAAAElFTkSuQmCC;" vertex="1" parent="1">
          <mxGeometry y="10" width="640" height="138.56" as="geometry" />
        </mxCell>
        <mxCell id="JqdoCzfmNL2n94xj6bWR-5" value="" style="edgeStyle=orthogonalEdgeStyle;rounded=0;orthogonalLoop=1;jettySize=auto;html=1;" edge="1" parent="1" source="JqdoCzfmNL2n94xj6bWR-3" target="JqdoCzfmNL2n94xj6bWR-4">
          <mxGeometry relative="1" as="geometry" />
        </mxCell>
        <mxCell id="JqdoCzfmNL2n94xj6bWR-3" value="Start" style="ellipse;whiteSpace=wrap;html=1;" vertex="1" parent="1">
          <mxGeometry x="354" y="170" width="86" height="50" as="geometry" />
        </mxCell>
        <mxCell id="JqdoCzfmNL2n94xj6bWR-7" value="" style="edgeStyle=orthogonalEdgeStyle;rounded=0;orthogonalLoop=1;jettySize=auto;html=1;" edge="1" parent="1" source="JqdoCzfmNL2n94xj6bWR-4" target="JqdoCzfmNL2n94xj6bWR-6">
          <mxGeometry relative="1" as="geometry" />
        </mxCell>
        <mxCell id="JqdoCzfmNL2n94xj6bWR-4" value="string[] FirstArray&lt;div&gt;string[] SecondArray&lt;/div&gt;&lt;div&gt;n=3&lt;/div&gt;&lt;div&gt;i=0&lt;/div&gt;&lt;div&gt;j=0&lt;/div&gt;" style="shape=parallelogram;perimeter=parallelogramPerimeter;whiteSpace=wrap;html=1;fixedSize=1;" vertex="1" parent="1">
          <mxGeometry x="307.25" y="250" width="179.5" height="80" as="geometry" />
        </mxCell>
        <mxCell id="JqdoCzfmNL2n94xj6bWR-9" value="" style="edgeStyle=orthogonalEdgeStyle;rounded=0;orthogonalLoop=1;jettySize=auto;html=1;" edge="1" parent="1" source="JqdoCzfmNL2n94xj6bWR-6" target="JqdoCzfmNL2n94xj6bWR-8">
          <mxGeometry relative="1" as="geometry" />
        </mxCell>
        <mxCell id="JqdoCzfmNL2n94xj6bWR-10" value="Yes" style="edgeLabel;html=1;align=center;verticalAlign=middle;resizable=0;points=[];" vertex="1" connectable="0" parent="JqdoCzfmNL2n94xj6bWR-9">
          <mxGeometry y="2" relative="1" as="geometry">
            <mxPoint as="offset" />
          </mxGeometry>
        </mxCell>
        <mxCell id="JqdoCzfmNL2n94xj6bWR-20" value="" style="edgeStyle=orthogonalEdgeStyle;rounded=0;orthogonalLoop=1;jettySize=auto;html=1;" edge="1" parent="1" source="JqdoCzfmNL2n94xj6bWR-6" target="JqdoCzfmNL2n94xj6bWR-19">
          <mxGeometry relative="1" as="geometry" />
        </mxCell>
        <mxCell id="JqdoCzfmNL2n94xj6bWR-23" value="No" style="edgeLabel;html=1;align=center;verticalAlign=middle;resizable=0;points=[];" vertex="1" connectable="0" parent="JqdoCzfmNL2n94xj6bWR-20">
          <mxGeometry x="0.099" y="-1" relative="1" as="geometry">
            <mxPoint as="offset" />
          </mxGeometry>
        </mxCell>
        <mxCell id="JqdoCzfmNL2n94xj6bWR-6" value="i&amp;lt;FirstArray.Lenght" style="rhombus;whiteSpace=wrap;html=1;" vertex="1" parent="1">
          <mxGeometry x="317.25" y="360" width="159.5" height="70" as="geometry" />
        </mxCell>
        <mxCell id="JqdoCzfmNL2n94xj6bWR-12" value="" style="edgeStyle=orthogonalEdgeStyle;rounded=0;orthogonalLoop=1;jettySize=auto;html=1;" edge="1" parent="1" source="JqdoCzfmNL2n94xj6bWR-8" target="JqdoCzfmNL2n94xj6bWR-11">
          <mxGeometry relative="1" as="geometry" />
        </mxCell>
        <mxCell id="JqdoCzfmNL2n94xj6bWR-13" value="Yes" style="edgeLabel;html=1;align=center;verticalAlign=middle;resizable=0;points=[];" vertex="1" connectable="0" parent="JqdoCzfmNL2n94xj6bWR-12">
          <mxGeometry x="-0.1768" y="1" relative="1" as="geometry">
            <mxPoint as="offset" />
          </mxGeometry>
        </mxCell>
        <mxCell id="JqdoCzfmNL2n94xj6bWR-15" value="" style="edgeStyle=orthogonalEdgeStyle;rounded=0;orthogonalLoop=1;jettySize=auto;html=1;" edge="1" parent="1" source="JqdoCzfmNL2n94xj6bWR-8" target="JqdoCzfmNL2n94xj6bWR-14">
          <mxGeometry relative="1" as="geometry" />
        </mxCell>
        <mxCell id="JqdoCzfmNL2n94xj6bWR-16" value="No" style="edgeLabel;html=1;align=center;verticalAlign=middle;resizable=0;points=[];" vertex="1" connectable="0" parent="JqdoCzfmNL2n94xj6bWR-15">
          <mxGeometry x="-0.0326" relative="1" as="geometry">
            <mxPoint as="offset" />
          </mxGeometry>
        </mxCell>
        <mxCell id="JqdoCzfmNL2n94xj6bWR-8" value="arr[i] &amp;lt;= n" style="rhombus;whiteSpace=wrap;html=1;" vertex="1" parent="1">
          <mxGeometry x="317.25" y="470" width="159.5" height="70" as="geometry" />
        </mxCell>
        <mxCell id="JqdoCzfmNL2n94xj6bWR-17" style="edgeStyle=orthogonalEdgeStyle;rounded=0;orthogonalLoop=1;jettySize=auto;html=1;entryX=0.5;entryY=1;entryDx=0;entryDy=0;" edge="1" parent="1" source="JqdoCzfmNL2n94xj6bWR-11" target="JqdoCzfmNL2n94xj6bWR-14">
          <mxGeometry relative="1" as="geometry" />
        </mxCell>
        <mxCell id="JqdoCzfmNL2n94xj6bWR-11" value="SecondArray[j] = FirstArray[i]&lt;div&gt;j++&lt;/div&gt;" style="whiteSpace=wrap;html=1;" vertex="1" parent="1">
          <mxGeometry x="310.5" y="584.5" width="173" height="55.5" as="geometry" />
        </mxCell>
        <mxCell id="JqdoCzfmNL2n94xj6bWR-18" style="edgeStyle=orthogonalEdgeStyle;rounded=0;orthogonalLoop=1;jettySize=auto;html=1;entryX=0;entryY=0.5;entryDx=0;entryDy=0;" edge="1" parent="1" source="JqdoCzfmNL2n94xj6bWR-14" target="JqdoCzfmNL2n94xj6bWR-6">
          <mxGeometry relative="1" as="geometry">
            <Array as="points">
              <mxPoint x="235" y="395" />
            </Array>
          </mxGeometry>
        </mxCell>
        <mxCell id="JqdoCzfmNL2n94xj6bWR-14" value="i++" style="whiteSpace=wrap;html=1;" vertex="1" parent="1">
          <mxGeometry x="200" y="482.5" width="70" height="45" as="geometry" />
        </mxCell>
        <mxCell id="JqdoCzfmNL2n94xj6bWR-22" value="" style="edgeStyle=orthogonalEdgeStyle;rounded=0;orthogonalLoop=1;jettySize=auto;html=1;" edge="1" parent="1" source="JqdoCzfmNL2n94xj6bWR-19" target="JqdoCzfmNL2n94xj6bWR-21">
          <mxGeometry relative="1" as="geometry" />
        </mxCell>
        <mxCell id="JqdoCzfmNL2n94xj6bWR-19" value="SecondArray" style="shape=document;whiteSpace=wrap;html=1;boundedLbl=1;" vertex="1" parent="1">
          <mxGeometry x="550" y="367.5" width="90" height="55" as="geometry" />
        </mxCell>
        <mxCell id="JqdoCzfmNL2n94xj6bWR-21" value="End" style="ellipse;whiteSpace=wrap;html=1;" vertex="1" parent="1">
          <mxGeometry x="690" y="370" width="80" height="50" as="geometry" />
        </mxCell>
      </root>
    </mxGraphModel>
  </diagram>
</mxfile>
